<?xml version="1.0" encoding="UTF-8"?>
<svg version="1.1" xmlns="http://www.w3.org/2000/svg" width="275" height="278">
<path d="M0 0 C4.62323747 0.80578885 9.25345192 1.47478824 13.91015625 2.0546875 C14.59223145 2.14669434 15.27430664 2.23870117 15.97705078 2.33349609 C22.10838594 3.06828669 27.56163453 2.4086954 33.34765625 0.3046875 C45.58152061 -4.11187003 58.80022544 -3.1422323 70.63671875 2.09375 C83.9085381 8.93074785 91.58402065 18.55835546 96.99609375 32.41796875 C100.83123634 45.01620597 99.19572582 58.03794954 93.26171875 69.66796875 C86.77704956 80.77749085 86.77704956 80.77749085 82.72265625 82.8046875 C81.32504167 87.95557351 81.75710958 92.24700556 83.2265625 97.32421875 C85.75058884 109.94435045 83.57043023 122.2890822 76.53515625 133.0546875 C68.54476917 143.6237133 58.58999356 150.25835506 45.44140625 152.546875 C42.24237053 152.85023184 39.12258558 152.8061518 35.91015625 152.7421875 C31.08760657 152.65886051 26.95717245 153.04835535 22.28515625 154.2421875 C1.83640792 159.45364035 -19.01029503 155.81632486 -37.13745117 145.22875977 C-54.95267036 134.13245211 -67.11447189 116.74642104 -71.90771484 96.32421875 C-72.23515111 94.86320009 -72.55717409 93.40095677 -72.87353516 91.9375 C-73.98830341 86.80509282 -75.49257357 81.98729974 -77.4453125 77.1015625 C-82.04709265 64.39805674 -80.57602438 47.02439761 -75.27734375 34.8046875 C-67.02328999 18.78963185 -55.42367594 6.93158369 -38.27734375 0.8046875 C-24.78933816 -3.0292319 -13.54784456 -2.39121225 0 0 Z M-30.27734375 34.8046875 C-29.94734375 36.1246875 -29.61734375 37.4446875 -29.27734375 38.8046875 C-25.48383695 39.15757185 -23.71793122 39.08862165 -20.46484375 36.9921875 C-18.06771238 34.92114937 -18.06771238 34.92114937 -17.27734375 31.8046875 C-18.42750629 30.44246443 -18.42750629 30.44246443 -21.52734375 30.4921875 C-25.80186714 30.84839778 -27.25308519 31.87207313 -30.27734375 34.8046875 Z M-3.08984375 36.3046875 C-3.78271484 36.54316406 -4.47558594 36.78164062 -5.18945312 37.02734375 C-6.8877827 37.61297464 -8.58290141 38.20790277 -10.27734375 38.8046875 C-9.49824079 44.88768372 -8.67953025 50.58924776 -5.27734375 55.8046875 C0.35682879 59.50904504 7.5839174 59.49476576 14.05792236 58.41531372 C16.61463965 57.85878897 19.15253287 57.25012825 21.69140625 56.6171875 C22.61232056 56.39522705 23.53323486 56.1732666 24.48205566 55.94458008 C27.39773096 55.2397841 30.31015065 54.52245683 33.22265625 53.8046875 C35.20943304 53.32208277 37.19641052 52.84030344 39.18359375 52.359375 C44.03232139 51.18401351 48.87817138 49.99741033 53.72265625 48.8046875 C52.92607283 46.67239176 52.92607283 46.67239176 51.00360107 46.07064819 C50.25701233 45.84414581 49.51042358 45.61764343 48.74121094 45.38427734 C47.89653259 45.12415863 47.05185425 44.86403992 46.18157959 44.59603882 C45.26185364 44.32200226 44.34212769 44.0479657 43.39453125 43.765625 C42.45337463 43.47990631 41.51221802 43.19418762 40.5425415 42.89981079 C38.54627009 42.29594623 36.54881265 41.69599099 34.55029297 41.09960938 C31.49624655 40.18673877 28.44722239 39.25839653 25.3984375 38.328125 C23.45991823 37.74385251 21.52112457 37.16048948 19.58203125 36.578125 C18.67040222 36.30003998 17.75877319 36.02195496 16.81951904 35.73544312 C15.53358856 35.35472153 15.53358856 35.35472153 14.22167969 34.96630859 C13.47190857 34.7413974 12.72213745 34.51648621 11.949646 34.28475952 C6.4546637 33.10020658 2.09261466 34.46975007 -3.08984375 36.3046875 Z M-17.27734375 38.8046875 C-18.26734375 40.2896875 -18.26734375 40.2896875 -19.27734375 41.8046875 C-18.59225443 44.22889386 -17.82820939 46.35718301 -16.84765625 48.66015625 C-16.57847382 49.32179276 -16.30929138 49.98342926 -16.0319519 50.66511536 C-15.16820496 52.77965815 -14.28561022 54.88573371 -13.40234375 56.9921875 C-12.81384705 58.42331183 -12.22659142 59.85494718 -11.640625 61.28710938 C-10.20053833 64.79906318 -8.74349827 68.30354082 -7.27734375 71.8046875 C-7.95716309 72.00167236 -8.63698242 72.19865723 -9.33740234 72.40161133 C-10.23281738 72.66482178 -11.12823242 72.92803223 -12.05078125 73.19921875 C-12.93685059 73.45807861 -13.82291992 73.71693848 -14.73583984 73.98364258 C-17.75974417 74.96052925 -20.49870134 76.26912196 -23.27734375 77.8046875 C-22.61734375 79.4546875 -21.95734375 81.1046875 -21.27734375 82.8046875 C-15.42074469 81.14315738 -9.81833035 79.33426834 -4.27734375 76.8046875 C-3.88933594 78.03058594 -3.50132813 79.25648437 -3.1015625 80.51953125 C-1.07536512 86.59812339 1.41751921 92.46806504 3.91015625 98.3671875 C4.37357422 99.47126953 4.83699219 100.57535156 5.31445312 101.71289062 C6.44759478 104.41140324 7.58371905 107.10861708 8.72265625 109.8046875 C10.04265625 109.8046875 11.36265625 109.8046875 12.72265625 109.8046875 C12.2538326 104.20044166 10.60378072 100.23426201 7.78515625 95.3671875 C-2.08250056 77.48443012 -8.84665437 58.13493614 -15.27734375 38.8046875 C-15.93734375 38.8046875 -16.59734375 38.8046875 -17.27734375 38.8046875 Z M-27.27734375 42.8046875 C-26.69084516 46.28913398 -25.79096591 49.17022293 -24.24609375 52.34375 C-23.84777344 53.17132813 -23.44945312 53.99890625 -23.0390625 54.8515625 C-22.62269531 55.70234375 -22.20632812 56.553125 -21.77734375 57.4296875 C-20.95296111 59.12949814 -20.12998294 60.82999084 -19.30859375 62.53125 C-18.94314453 63.27971191 -18.57769531 64.02817383 -18.20117188 64.79931641 C-17.27734375 66.8046875 -17.27734375 66.8046875 -16.27734375 69.8046875 C-14.95734375 69.4746875 -13.63734375 69.1446875 -12.27734375 68.8046875 C-15.49736155 59.88601276 -18.73886877 51.15869454 -23.27734375 42.8046875 C-24.59734375 42.8046875 -25.91734375 42.8046875 -27.27734375 42.8046875 Z M-38.27734375 47.8046875 C-38.27734375 48.1346875 -38.27734375 48.4646875 -38.27734375 48.8046875 C-33.82234375 49.7946875 -33.82234375 49.7946875 -29.27734375 50.8046875 C-29.93734375 49.1546875 -30.59734375 47.5046875 -31.27734375 45.8046875 C-33.92387725 45.8046875 -35.85816005 46.78608384 -38.27734375 47.8046875 Z M49.72265625 53.8046875 C49.39265625 60.4046875 49.06265625 67.0046875 48.72265625 73.8046875 C50.04265625 73.8046875 51.36265625 73.8046875 52.72265625 73.8046875 C52.39265625 67.2046875 52.06265625 60.6046875 51.72265625 53.8046875 C51.06265625 53.8046875 50.40265625 53.8046875 49.72265625 53.8046875 Z M32.21484375 57.1171875 C31.14492187 57.38789062 30.075 57.65859375 28.97265625 57.9375 C26.74463506 58.50997767 24.51802876 59.087994 22.29296875 59.671875 C13.52084576 61.87539872 5.63793142 62.68158753 -3.27734375 60.8046875 C-1.34110077 67.00946614 0.97874766 72.91294469 3.72265625 78.8046875 C16.13814759 79.44686809 29.39076077 76.64373852 39.84765625 69.7421875 C42.69689875 65.27837425 42.12878377 60.95799446 41.72265625 55.8046875 C38.12696974 55.8046875 35.64806714 56.22081453 32.21484375 57.1171875 Z M-26.27734375 56.8046875 C-26.99966219 62.93190074 -26.99966219 62.93190074 -25.1640625 68.58203125 C-23.66166152 70.09930479 -23.66166152 70.09930479 -21.27734375 71.8046875 C-20.61734375 71.4746875 -19.95734375 71.1446875 -19.27734375 70.8046875 C-21.25734375 66.1846875 -23.23734375 61.5646875 -25.27734375 56.8046875 C-25.60734375 56.8046875 -25.93734375 56.8046875 -26.27734375 56.8046875 Z M47.72265625 78.8046875 C46.25218289 82.71531974 46.25218289 82.71531974 45.72265625 86.8046875 C48.69265625 86.8046875 51.66265625 86.8046875 54.72265625 86.8046875 C54.93236184 82.66375052 54.93236184 82.66375052 53.72265625 78.8046875 C51.74265625 78.8046875 49.76265625 78.8046875 47.72265625 78.8046875 Z M-8.27734375 81.8046875 C-8.93734375 82.4646875 -9.59734375 83.1246875 -10.27734375 83.8046875 C-8.96925208 87.7643781 -7.63620312 91.71447883 -6.27954102 95.65771484 C-5.82176383 96.99977171 -5.37084403 98.3441883 -4.92700195 99.69091797 C-4.28702752 101.62871766 -3.6227074 103.55663667 -2.953125 105.484375 C-2.56036377 106.64694824 -2.16760254 107.80952148 -1.76293945 109.00732422 C-0.50982245 112.00309604 -0.50982245 112.00309604 2.38989258 113.19970703 C3.15970459 113.39935059 3.9295166 113.59899414 4.72265625 113.8046875 C6.07398157 111.69029212 6.07398157 111.69029212 4.73461914 108.82373047 C4.22946808 107.56156725 3.71575209 106.30281139 3.1953125 105.046875 C2.92754501 104.38382355 2.65977753 103.72077209 2.38389587 103.03762817 C1.52486876 100.91530016 0.65516585 98.79753397 -0.21484375 96.6796875 C-0.79823308 95.24377664 -1.38092451 93.80758202 -1.96289062 92.37109375 C-3.3929567 88.8456116 -4.83261391 85.32418449 -6.27734375 81.8046875 C-6.93734375 81.8046875 -7.59734375 81.8046875 -8.27734375 81.8046875 Z " fill="#592BCC" transform="translate(123.27734375,31.1953125)"/>
<path d="M0 0 C9.76972036 7.83456421 16.11193295 20.11654204 17.78125 32.44140625 C18.99529641 47.58713279 14.39140269 59.44425398 5.53125 71.50390625 C3.78125 73.44140625 3.78125 73.44140625 1.78125 74.44140625 C0.38363542 79.59229226 0.81570333 83.88372431 2.28515625 88.9609375 C4.80918259 101.5810692 2.62902398 113.92580095 -4.40625 124.69140625 C-12.52155613 135.42566468 -22.52773569 141.95225956 -35.8828125 144.1640625 C-47.37297258 145.52827883 -57.52049198 142.73947819 -67.21875 136.44140625 C-72.01093363 132.04329352 -76.17538227 127.21527214 -79.21875 121.44140625 C-79.21875 120.45140625 -79.21875 119.46140625 -79.21875 118.44140625 C-79.87875 118.44140625 -80.53875 118.44140625 -81.21875 118.44140625 C-81.8696759 117.19405058 -82.51426669 115.94338793 -83.15625 114.69140625 C-83.69572266 113.64726562 -83.69572266 113.64726562 -84.24609375 112.58203125 C-85.80539177 109.15032315 -86.34486723 106.08888079 -86.31640625 102.33203125 C-86.31318359 101.57792969 -86.30996094 100.82382813 -86.30664062 100.046875 C-86.29826172 99.26957031 -86.28988281 98.49226563 -86.28125 97.69140625 C-86.27673828 96.89863281 -86.27222656 96.10585937 -86.26757812 95.2890625 C-86.25583565 93.33981117 -86.23790146 91.39059887 -86.21875 89.44140625 C-83.76508887 93.12189795 -82.72618043 96.84198613 -81.4140625 101.04296875 C-80.46428314 103.62013615 -80.46428314 103.62013615 -78.0859375 104.27734375 C-77.16167969 104.35855469 -77.16167969 104.35855469 -76.21875 104.44140625 C-76.85103516 102.83072266 -76.85103516 102.83072266 -77.49609375 101.1875 C-78.04986444 99.75145059 -78.60322824 98.31524423 -79.15625 96.87890625 C-79.43404297 96.17443359 -79.71183594 95.46996094 -79.99804688 94.74414062 C-81.68964336 90.32153294 -82.84033548 86.2046239 -83.21875 81.44140625 C-82.72375 80.45140625 -82.72375 80.45140625 -82.21875 79.44140625 C-81.55875 79.44140625 -80.89875 79.44140625 -80.21875 79.44140625 C-77.24875 86.70140625 -74.27875 93.96140625 -71.21875 101.44140625 C-70.55875 101.44140625 -69.89875 101.44140625 -69.21875 101.44140625 C-69.71929122 94.41529057 -72.63967108 89.56858821 -76.15625 83.58203125 C-79.24178598 78.09881763 -79.24178598 78.09881763 -79.1171875 74.54296875 C-78.21875 72.44140625 -78.21875 72.44140625 -76.21875 70.44140625 C-73.27657697 69.93087873 -70.36550111 69.50621077 -67.40625 69.12890625 C-59.04045621 67.95345527 -51.97085436 65.85135089 -44.21875 62.44140625 C-43.22875 62.11140625 -42.23875 61.78140625 -41.21875 61.44140625 C-40.13931741 58.20310848 -40.1187529 55.8411429 -40.15625 52.44140625 C-40.16527344 51.38953125 -40.17429688 50.33765625 -40.18359375 49.25390625 C-40.19519531 48.32578125 -40.20679688 47.39765625 -40.21875 46.44140625 C-40.21875 45.10807292 -40.21875 43.77473958 -40.21875 42.44140625 C-36.25875 41.45140625 -32.29875 40.46140625 -28.21875 39.44140625 C-31.0340625 38.82265625 -31.0340625 38.82265625 -33.90625 38.19140625 C-37.72319828 36.9295312 -39.68723682 36.25028379 -41.91796875 32.85546875 C-42.71463937 30.79630018 -43.45555657 28.71484647 -44.14453125 26.6171875 C-47.51712309 16.64657962 -54.21032007 8.98762285 -62.21875 2.44140625 C-61.21875 -0.55859375 -61.21875 -0.55859375 -59.34375 -1.55859375 C-58.6425 -1.88859375 -57.94125 -2.21859375 -57.21875 -2.55859375 C-56.79078125 -3.03039063 -56.3628125 -3.5021875 -55.921875 -3.98828125 C-53.73401265 -6.00553049 -51.64694659 -6.70823494 -48.84375 -7.68359375 C-47.90789062 -8.01617188 -46.97203125 -8.34875 -46.0078125 -8.69140625 C-29.71343489 -13.75772534 -13.65448511 -9.591795 0 0 Z M-31.21875 45.44140625 C-31.54875 52.04140625 -31.87875 58.64140625 -32.21875 65.44140625 C-30.89875 65.44140625 -29.57875 65.44140625 -28.21875 65.44140625 C-28.54875 58.84140625 -28.87875 52.24140625 -29.21875 45.44140625 C-29.87875 45.44140625 -30.53875 45.44140625 -31.21875 45.44140625 Z M-33.21875 70.44140625 C-34.68922336 74.35203849 -34.68922336 74.35203849 -35.21875 78.44140625 C-32.24875 78.44140625 -29.27875 78.44140625 -26.21875 78.44140625 C-26.00904441 74.30046927 -26.00904441 74.30046927 -27.21875 70.44140625 C-29.19875 70.44140625 -31.17875 70.44140625 -33.21875 70.44140625 Z " fill="#D7567C" transform="translate(204.21875,39.55859375)"/>
<path d="M0 0 C9.76972036 7.83456421 16.11193295 20.11654204 17.78125 32.44140625 C18.99529641 47.58713279 14.39140269 59.44425398 5.53125 71.50390625 C3.78125 73.44140625 3.78125 73.44140625 1.78125 74.44140625 C1.12125 75.43140625 0.46125 76.42140625 -0.21875 77.44140625 C-1.20875 77.44140625 -2.19875 77.44140625 -3.21875 77.44140625 C-3.54875 75.79140625 -3.87875 74.14140625 -4.21875 72.44140625 C-4.80140625 72.36792969 -5.3840625 72.29445313 -5.984375 72.21875 C-9.01079132 71.16585341 -10.06350871 69.548299 -11.96875 67.00390625 C-12.58234375 66.20082031 -13.1959375 65.39773437 -13.828125 64.5703125 C-15.21875 62.44140625 -15.21875 62.44140625 -15.21875 60.44140625 C-16.53875 60.44140625 -17.85875 60.44140625 -19.21875 60.44140625 C-19.21875 59.78140625 -19.21875 59.12140625 -19.21875 58.44140625 C-22.18875 58.11140625 -25.15875 57.78140625 -28.21875 57.44140625 C-28.21875 59.42140625 -28.21875 61.40140625 -28.21875 63.44140625 C-28.54875 63.44140625 -28.87875 63.44140625 -29.21875 63.44140625 C-29.21875 57.50140625 -29.21875 51.56140625 -29.21875 45.44140625 C-29.87875 45.44140625 -30.53875 45.44140625 -31.21875 45.44140625 C-31.21875 52.04140625 -31.21875 58.64140625 -31.21875 65.44140625 C-30.22875 65.44140625 -29.23875 65.44140625 -28.21875 65.44140625 C-28.21875 66.10140625 -28.21875 66.76140625 -28.21875 67.44140625 C-29.86875 67.11140625 -31.51875 66.78140625 -33.21875 66.44140625 C-33.71375 61.49140625 -33.71375 61.49140625 -34.21875 56.44140625 C-35.20875 56.44140625 -36.19875 56.44140625 -37.21875 56.44140625 C-37.5075 57.08078125 -37.79625 57.72015625 -38.09375 58.37890625 C-39.21875 60.44140625 -39.21875 60.44140625 -41.21875 61.44140625 C-40.72375 59.95640625 -40.72375 59.95640625 -40.21875 58.44140625 C-40.14934361 56.44250235 -40.13419132 54.44139311 -40.15625 52.44140625 C-40.16527344 51.38953125 -40.17429688 50.33765625 -40.18359375 49.25390625 C-40.19519531 48.32578125 -40.20679688 47.39765625 -40.21875 46.44140625 C-40.21875 45.10807292 -40.21875 43.77473958 -40.21875 42.44140625 C-36.25875 41.45140625 -32.29875 40.46140625 -28.21875 39.44140625 C-31.0340625 38.82265625 -31.0340625 38.82265625 -33.90625 38.19140625 C-37.72319828 36.9295312 -39.68723682 36.25028379 -41.91796875 32.85546875 C-42.71463937 30.79630018 -43.45555657 28.71484647 -44.14453125 26.6171875 C-47.51712309 16.64657962 -54.21032007 8.98762285 -62.21875 2.44140625 C-61.21875 -0.55859375 -61.21875 -0.55859375 -59.34375 -1.55859375 C-58.6425 -1.88859375 -57.94125 -2.21859375 -57.21875 -2.55859375 C-56.79078125 -3.03039063 -56.3628125 -3.5021875 -55.921875 -3.98828125 C-53.73401265 -6.00553049 -51.64694659 -6.70823494 -48.84375 -7.68359375 C-47.90789062 -8.01617188 -46.97203125 -8.34875 -46.0078125 -8.69140625 C-29.71343489 -13.75772534 -13.65448511 -9.591795 0 0 Z " fill="#F9B560" transform="translate(204.21875,39.55859375)"/>
<path d="M0 0 C3.0625 -0.4375 3.0625 -0.4375 6 0 C6.66 0.66 7.32 1.32 8 2 C8.84949219 1.67644531 9.69898438 1.35289062 10.57421875 1.01953125 C19.04128545 -1.50031414 29.0722022 -1.06280617 37 3 C41.39949537 5.58479884 44.39649546 7.64211478 46.5 12.375 C46.665 13.24125 46.83 14.1075 47 15 C47.7425 14.608125 48.485 14.21625 49.25 13.8125 C52 13 52 13 54.1875 14.125 C56.00046098 16.00047687 57.00780133 17.60218656 58 20 C59.2684375 18.7315625 59.2684375 18.7315625 60.5625 17.4375 C63.42461268 15.00572884 63.81550241 14.9910727 67.875 15.1875 C68.90625 15.455625 69.9375 15.72375 71 16 C71.8671875 17.640625 71.8671875 17.640625 72 20 C69.60129339 22.63180976 67.10009858 24.91420121 64.40234375 27.2265625 C61.35279582 30.02258507 59.65291792 31.9848192 59.046875 36.16015625 C58.80539409 40.03033471 58.80539409 40.03033471 60.125 43.6875 C61 47 61 47 59.9375 49.875 C58 52 58 52 55.5 52.9375 C53 53 53 53 50 51 C48.72700186 46.8721717 48.76022924 42.54001825 48.5625 38.25 C48.58171751 28.49071175 48.58171751 28.49071175 45 20 C43.948125 21.5159375 43.948125 21.5159375 42.875 23.0625 C37.05249844 29.91577935 27.37466349 33.38291766 19 36 C19.04640625 36.89203125 19.0928125 37.7840625 19.140625 38.703125 C19.19476563 40.45882812 19.19476563 40.45882812 19.25 42.25 C19.29640625 43.41015625 19.3428125 44.5703125 19.390625 45.765625 C19 49 19 49 17.1484375 51.39453125 C15 53 15 53 12.375 53.4375 C11.59125 53.293125 10.8075 53.14875 10 53 C7.53799647 49.3069947 7.74221426 47.4285402 7.734375 43.0234375 C7.73150482 41.9964122 7.73150482 41.9964122 7.72857666 40.94863892 C7.72721615 39.49781935 7.73090328 38.04698756 7.73925781 36.59619141 C7.74986128 34.40368299 7.73941004 32.21201252 7.7265625 30.01953125 C7.72036307 22.77301606 8.01130373 16.02357016 10 9 C9.01 8.67 8.02 8.34 7 8 C3.9346507 18.32895948 1.33839887 28.70807952 -1.00268555 39.22802734 C-1.42985786 41.13882472 -1.8728791 43.04605749 -2.31640625 44.953125 C-2.56849854 46.06848633 -2.82059082 47.18384766 -3.08032227 48.33300781 C-4 51 -4 51 -7 53 C-9.375 53.625 -9.375 53.625 -12 53 C-19.34185511 43.72607776 -26.04056948 28.47496957 -27.375 16.6875 C-26.93442898 13.53007437 -26.37817592 12.13215773 -24 10 C-21.3125 9.75 -21.3125 9.75 -19 10 C-16.7307952 15.06411981 -14.92000482 20.12933452 -13.3125 25.4375 C-13.08755859 26.16904297 -12.86261719 26.90058594 -12.63085938 27.65429688 C-12.08380134 29.43514536 -11.54140628 31.21742517 -11 33 C-8.95673727 29.9351059 -8.38551817 27.96559408 -7.59765625 24.4140625 C-7.34693359 23.31835938 -7.09621094 22.22265625 -6.83789062 21.09375 C-6.3228125 18.78952141 -5.80977643 16.48483536 -5.29882812 14.1796875 C-5.04681641 13.08140625 -4.79480469 11.983125 -4.53515625 10.8515625 C-4.312229 9.84947754 -4.08930176 8.84739258 -3.85961914 7.81494141 C-2.94040021 4.80483226 -1.86918939 2.53248704 0 0 Z M20 8 C18.4980965 13.79305637 17.67897235 19.00748387 18 25 C19.08473412 26.2916351 19.08473412 26.2916351 21.6875 26.3125 C26.74518972 25.83535946 29.58611606 23.19063911 33.375 20 C35.42039508 17.91208084 35.42039508 17.91208084 35 14 C30.74539406 9.900107 25.75726094 8.35982881 20 8 Z " fill="#E25333" transform="translate(80,214)"/>
<path d="M0 0 C2.67190522 2.65717045 5.32384308 5.32845502 7.9375 8.04296875 C8.95826325 9.09121409 9.97909729 10.13939049 11 11.1875 C11.50789063 11.72052734 12.01578125 12.25355469 12.5390625 12.80273438 C15.54208828 15.86351065 18.02639883 17.50280385 22 19 C22.33 19.99 22.66 20.98 23 22 C25.76420885 23.13572808 25.76420885 23.13572808 29 24 C30.38832031 24.51240234 30.38832031 24.51240234 31.8046875 25.03515625 C43.30808231 28.88425655 54.97015179 28.82801795 67 29 C67.30583008 29.6602417 67.61166016 30.3204834 67.92675781 31.00073242 C70.37038121 36.10719487 72.7028241 40.27211466 76.75 44.3125 C79.94299518 47.51078159 81.51664844 49.44843952 82 54 C83.98 54.495 83.98 54.495 86 55 C86 55.66 86 56.32 86 57 C86.99 57 87.98 57 89 57 C89 57.66 89 58.32 89 59 C90.485 59.495 90.485 59.495 92 60 C91.67 60.99 91.34 61.98 91 63 C85.02842601 63.92449827 79.51758541 63.9888273 73.5 63.5625 C72.67757812 63.51029297 71.85515625 63.45808594 71.0078125 63.40429688 C69.00477101 63.27619538 67.00231129 63.13904939 65 63 C64.67 61.35 64.34 59.7 64 58 C60.75016865 59.08784968 60.75016865 59.08784968 58 61 C52.33124828 60.60905161 48.11097244 59.44900763 43 57 C43 56.34 43 55.68 43 55 C42.40574219 54.96003906 41.81148437 54.92007813 41.19921875 54.87890625 C29.94599974 53.46131567 22.26451579 45.05294049 15.12890625 36.78125 C7.62454658 26.97738929 -0.77047107 12.73684986 0 0 Z " fill="#356FF3" transform="translate(51,122)"/>
<path d="M0 0 C1.1034375 -0.00257812 2.206875 -0.00515625 3.34375 -0.0078125 C6.18492244 0.11174179 8.73807642 0.47574185 11.5 1.125 C11.5 1.455 11.5 1.785 11.5 2.125 C10.48421875 2.09019531 9.4684375 2.05539063 8.421875 2.01953125 C-0.41251359 1.81167595 -7.96828135 2.60337412 -16.5 5.125 C-18.16304425 5.47595968 -19.82886189 5.81486085 -21.5 6.125 C-21.5 6.785 -21.5 7.445 -21.5 8.125 C-20.695625 8.186875 -19.89125 8.24875 -19.0625 8.3125 C-14.30114875 9.39842222 -10.65354651 11.61891059 -6.5 14.125 C-5.33404297 14.80369141 -5.33404297 14.80369141 -4.14453125 15.49609375 C0.04437222 17.99460786 0.04437222 17.99460786 1.5 19.125 C1.5 19.785 1.5 20.445 1.5 21.125 C2.82 21.455 4.14 21.785 5.5 22.125 C5.5 22.785 5.5 23.445 5.5 24.125 C6.056875 24.351875 6.61375 24.57875 7.1875 24.8125 C10.16159588 26.50050036 12.22008865 28.59176517 14.5 31.125 C14.5 31.785 14.5 32.445 14.5 33.125 C15.16 33.125 15.82 33.125 16.5 33.125 C19.5 37.50961538 19.5 37.50961538 19.5 40.125 C20.16 40.125 20.82 40.125 21.5 40.125 C22.17595315 41.53725926 22.84040059 42.95502905 23.5 44.375 C23.87125 45.16390625 24.2425 45.9528125 24.625 46.765625 C25.5 49.125 25.5 49.125 25.5 53.125 C26.16 53.125 26.82 53.125 27.5 53.125 C30.55838449 62.22902825 32.00830116 70.38474009 32.32421875 79.921875 C32.28131504 83.01890593 32.28131504 83.01890593 33.5 85.125 C32.84 86.115 32.18 87.105 31.5 88.125 C30.51 88.125 29.52 88.125 28.5 88.125 C28.17 86.475 27.84 84.825 27.5 83.125 C26.91734375 83.05152344 26.3346875 82.97804688 25.734375 82.90234375 C22.70795868 81.84944716 21.65524129 80.23189275 19.75 77.6875 C19.13640625 76.88441406 18.5228125 76.08132812 17.890625 75.25390625 C16.5 73.125 16.5 73.125 16.5 71.125 C15.18 71.125 13.86 71.125 12.5 71.125 C12.5 70.465 12.5 69.805 12.5 69.125 C9.53 68.795 6.56 68.465 3.5 68.125 C3.5 70.105 3.5 72.085 3.5 74.125 C3.17 74.125 2.84 74.125 2.5 74.125 C2.5 68.185 2.5 62.245 2.5 56.125 C1.84 56.125 1.18 56.125 0.5 56.125 C0.5 62.725 0.5 69.325 0.5 76.125 C1.49 76.125 2.48 76.125 3.5 76.125 C3.5 76.785 3.5 77.445 3.5 78.125 C1.85 77.795 0.2 77.465 -1.5 77.125 C-1.995 72.175 -1.995 72.175 -2.5 67.125 C-3.49 67.125 -4.48 67.125 -5.5 67.125 C-5.78875 67.764375 -6.0775 68.40375 -6.375 69.0625 C-7.5 71.125 -7.5 71.125 -9.5 72.125 C-9.005 70.64 -9.005 70.64 -8.5 69.125 C-8.43059361 67.1260961 -8.41544132 65.12498686 -8.4375 63.125 C-8.44652344 62.073125 -8.45554688 61.02125 -8.46484375 59.9375 C-8.47644531 59.009375 -8.48804688 58.08125 -8.5 57.125 C-8.5 55.79166667 -8.5 54.45833333 -8.5 53.125 C-4.54 52.135 -0.58 51.145 3.5 50.125 C0.6846875 49.50625 0.6846875 49.50625 -2.1875 48.875 C-6.00444828 47.61312495 -7.96848682 46.93387754 -10.19921875 43.5390625 C-10.99588937 41.47989393 -11.73680657 39.39844022 -12.42578125 37.30078125 C-15.79837309 27.33017337 -22.49157007 19.6712166 -30.5 13.125 C-29.5 10.125 -29.5 10.125 -27.625 9.125 C-26.92375 8.795 -26.2225 8.465 -25.5 8.125 C-25.07203125 7.65320312 -24.6440625 7.18140625 -24.203125 6.6953125 C-22.01526265 4.67806326 -19.92819659 3.97535881 -17.125 3 C-16.18914062 2.66742187 -15.25328125 2.33484375 -14.2890625 1.9921875 C-9.42590905 0.48011458 -5.09742759 -0.01190988 0 0 Z " fill="#D3995C" transform="translate(172.5,28.875)"/>
<path d="M0 0 C0.928125 0.20625 1.85625 0.4125 2.8125 0.625 C3.3075 3.1 3.3075 3.1 3.8125 5.625 C5.00875 5.7075 6.205 5.79 7.4375 5.875 C11.71665467 6.39944347 14.42665872 7.89981068 17.8125 10.625 C19.02384515 13.0476903 18.86090274 14.32050099 18.625 17 C18.56957031 17.77085937 18.51414063 18.54171875 18.45703125 19.3359375 C17.57892158 22.4545573 16.35769421 23.63091396 13.8125 25.625 C10.6484375 26.890625 10.6484375 26.890625 7.1875 27.875 C6.04023438 28.21015625 4.89296875 28.5453125 3.7109375 28.890625 C0.8125 29.625 0.8125 29.625 -1.1875 29.625 C-0.74511615 37.15716715 -0.04844772 44.3052723 1.8125 51.625 C-1.1575 51.625 -4.1275 51.625 -7.1875 51.625 C-8.75827907 46.59850697 -9.63604729 41.86380078 -10.1875 36.625 C-11.156875 37.140625 -12.12625 37.65625 -13.125 38.1875 C-17.65142702 40.08951378 -21.51064768 40.07928623 -26.1875 38.625 C-30.94231261 36.12826442 -33.41360671 32.92958018 -35.125 27.875 C-36.70195545 21.33063487 -37.55685529 15.31480502 -34.4375 9.1875 C-29.80149574 3.90760626 -29.80149574 3.90760626 -26.1796875 3.2734375 C-21.00172334 2.9399415 -17.64966009 3.83038359 -13.62890625 7.1328125 C-10.78623126 10.07563593 -9.44521528 13.05344214 -8.7890625 17.0546875 C-9.1875 19.625 -9.1875 19.625 -11.48828125 21.7578125 C-12.48214844 22.41523438 -13.47601563 23.07265625 -14.5 23.75 C-19.13829682 26.83694061 -19.13829682 26.83694061 -23.1875 30.625 C-18.55828475 31.6411692 -14.84287393 31.46296731 -10.1875 30.625 C-9.19369066 25.13790378 -8.26814958 19.66396079 -7.71484375 14.11328125 C-7.63669434 13.34943115 -7.55854492 12.58558105 -7.47802734 11.79858398 C-7.32734672 10.27967813 -7.18813232 8.75958619 -7.06103516 7.23852539 C-6.84765625 5.1171875 -6.84765625 5.1171875 -6.1875 1.625 C-3.1875 -0.375 -3.1875 -0.375 0 0 Z M-26.1875 11.625 C-28.33559171 14.84713757 -28.48136153 15.90275401 -28.1875 19.625 C-27.8575 19.955 -27.5275 20.285 -27.1875 20.625 C-23.70694126 20.44932642 -23.70694126 20.44932642 -20.1875 19.625 C-17.88078085 16.90950846 -17.88078085 16.90950846 -18.5625 14.4375 C-18.76875 13.839375 -18.975 13.24125 -19.1875 12.625 C-21.4975 12.295 -23.8075 11.965 -26.1875 11.625 Z M2.8125 12.625 C1.07583273 14.82332713 1.07583273 14.82332713 -0.1875 17.625 C0.50735264 20.40723378 0.50735264 20.40723378 1.8125 22.625 C4.4760969 22.26505447 6.39433452 21.91338998 8.625 20.375 C10.20614795 18.04488723 10.03587696 16.37998245 9.8125 13.625 C7.5025 13.295 5.1925 12.965 2.8125 12.625 Z " fill="#D75439" transform="translate(189.1875,226.375)"/>
<path d="M0 0 C-0.33 0.66 -0.66 1.32 -1 2 C-2.38058594 1.93039063 -2.38058594 1.93039063 -3.7890625 1.859375 C-16.3340798 1.50167593 -27.00157838 3.94126494 -38.109375 10.046875 C-40 11 -40 11 -42 11 C-42 11.66 -42 12.32 -42 13 C-42.886875 13.391875 -43.77375 13.78375 -44.6875 14.1875 C-48.20634543 16.11290599 -50.27363486 18.07414473 -53 21 C-54.24758168 22.23162115 -55.49768581 23.46069119 -56.75 24.6875 C-59.21227916 27.09663921 -59.21227916 27.09663921 -61 30 C-61.66 30 -62.32 30 -63 30 C-63.33 31.32 -63.66 32.64 -64 34 C-64.66 34 -65.32 34 -66 34 C-66.391875 35.2375 -66.78375 36.475 -67.1875 37.75 C-68.46442995 41.61119293 -69.95782632 45.32617401 -71.5625 49.0625 C-76.83615502 61.57357346 -78.27842183 74.61427177 -76 88 C-76.66 88 -77.32 88 -78 88 C-78.81627446 85.60539412 -79.62811645 83.20943474 -80.4375 80.8125 C-80.66759766 80.13896484 -80.89769531 79.46542969 -81.13476562 78.77148438 C-85.97947377 64.37778627 -86.0941861 47.05428873 -80 33 C-71.74594624 16.98494435 -60.14633219 5.12689619 -43 -1 C-29.85259776 -4.73710406 -12.79617599 -6.398088 0 0 Z " fill="#7F47CC" transform="translate(128,33)"/>
<path d="M0 0 C0.99 0 1.98 0 3 0 C3.66 3.3 4.32 6.6 5 10 C6.32 10.33 7.64 10.66 9 11 C9 7.7 9 4.4 9 1 C15.75 0.875 15.75 0.875 18 2 C18 2.66 18 3.32 18 4 C19.32 4 20.64 4 22 4 C24.03515625 6.37109375 24.03515625 6.37109375 26.0625 9.4375 C28.69961246 13.77252938 28.69961246 13.77252938 33 16 C33.495 18.475 33.495 18.475 34 21 C33.01 21.33 32.02 21.66 31 22 C30.26676204 24.01508358 30.26676204 24.01508358 30 26 C21.18019101 29.03477299 13.14173299 30.38793593 3.8125 30.375 C2.44992065 30.37693359 2.44992065 30.37693359 1.05981445 30.37890625 C-3.2405778 30.30791206 -6.19804834 30.16222184 -10 28 C-9.6875 25.125 -9.6875 25.125 -9 22 C-8.01 21.34 -7.02 20.68 -6 20 C-5.27617533 17.94074861 -5.27617533 17.94074861 -5 16 C-4.34 16 -3.68 16 -3 16 C-3.03480469 15.34773438 -3.06960937 14.69546875 -3.10546875 14.0234375 C-3.27610432 8.51434628 -3.0363889 4.80761576 0 0 Z M4 14 C2.52952664 17.91063224 2.52952664 17.91063224 2 22 C4.97 22 7.94 22 11 22 C11.20970559 17.85906302 11.20970559 17.85906302 10 14 C8.02 14 6.04 14 4 14 Z " fill="#F06061" transform="translate(167,96)"/>
<path d="M0 0 C0.495 1.485 0.495 1.485 1 3 C1.66 3 2.32 3 3 3 C6.1900529 13.16667266 4.52757959 25.59656546 0 35 C-6.73407773 46.96781689 -16.39399611 55.00333322 -29.640625 58.74609375 C-34.82190119 59.89837143 -39.70425886 60.19613856 -45 60 C-45 58.68 -45 57.36 -45 56 C-44.319375 55.7525 -43.63875 55.505 -42.9375 55.25 C-40.57222311 54.2434992 -38.51447598 53.1740737 -36.3125 51.875 C-33 50 -33 50 -31 50 C-31 49.34 -31 48.68 -31 48 C-29.44371556 46.6510255 -27.82863873 45.36935411 -26.1875 44.125 C-22.88362128 41.61729408 -20.46885288 39.30663179 -18 36 C-17.34 36 -16.68 36 -16 36 C-15.7525 35.443125 -15.505 34.88625 -15.25 34.3125 C-14 32 -14 32 -12.109375 29.7265625 C-5.49125333 21.17202745 -2.63180604 10.32596842 0 0 Z " fill="#F67483" transform="translate(203,124)"/>
<path d="M0 0 C3.61355481 6.94914387 5.68156894 13.29105603 7 21 C7.66 21 8.32 21 9 21 C9.33 19.68 9.66 18.36 10 17 C10.33 18.11375 10.66 19.2275 11 20.375 C11.76808866 22.33458372 11.76808866 22.33458372 13 24 C22.79385002 27.81794153 31.79567997 25.56116085 41.625 23 C43.82386532 22.43106282 46.0243516 21.8683465 48.2265625 21.3125 C49.19158691 21.06113281 50.15661133 20.80976562 51.15087891 20.55078125 C54.16544778 19.96801626 56.93714679 19.90479938 60 20 C59.37304688 21.87988281 59.37304688 21.87988281 58 24 C55.36132812 25.09667969 55.36132812 25.09667969 52.03125 25.921875 C50.21367187 26.37626953 50.21367187 26.37626953 48.359375 26.83984375 C47.08578125 27.14019531 45.8121875 27.44054687 44.5 27.75 C43.25734375 28.06582031 42.0146875 28.38164063 40.734375 28.70703125 C31.55254027 30.94437706 22.99105964 32.78570932 14 29 C14.5053125 30.19238281 15.010625 31.38476562 15.53125 32.61328125 C16.18777854 34.17957077 16.84401329 35.74598347 17.5 37.3125 C17.83386719 38.09818359 18.16773437 38.88386719 18.51171875 39.69335938 C18.82753906 40.45068359 19.14335938 41.20800781 19.46875 41.98828125 C19.90864258 43.03302612 19.90864258 43.03302612 20.35742188 44.09887695 C21 46 21 46 21 49 C20.01 49.66 19.02 50.32 18 51 C13.29997316 40.41571286 8.77019548 29.80823626 4.9375 18.875 C4.63900146 18.02905273 4.34050293 17.18310547 4.03295898 16.31152344 C2 10.39282817 2 10.39282817 2 7 C1.01 7.99 0.02 8.98 -1 10 C-0.66677734 10.80219971 -0.33355469 11.60439941 0.00976562 12.4309082 C1.24396395 15.40916685 2.47342509 18.38932367 3.69970703 21.37084961 C4.23134392 22.66069346 4.76486022 23.94976435 5.30029297 25.23803711 C6.06972387 27.09023857 6.83183735 28.94547446 7.59375 30.80078125 C8.05458984 31.91622314 8.51542969 33.03166504 8.99023438 34.1809082 C10 37 10 37 10 40 C7.5433053 41.00419637 5.08481647 42.00350501 2.625 43 C1.92632812 43.28617188 1.22765625 43.57234375 0.5078125 43.8671875 C-4.7734375 46 -4.7734375 46 -7 46 C-6.34 44.68 -5.68 43.36 -5 42 C-5.99 41.01 -6.98 40.02 -8 39 C-7.67 38.34 -7.34 37.68 -7 37 C-5.68 37.66 -4.36 38.32 -3 39 C-4.65 35.37 -6.3 31.74 -8 28 C-8.33 30.31 -8.66 32.62 -9 35 C-9.66 34.67 -10.32 34.34 -11 34 C-11 30.37 -11 26.74 -11 23 C-10.01 23 -9.02 23 -8 23 C-7.34 22.01 -6.68 21.02 -6 20 C-4.82625827 22.43431639 -3.66084237 24.87204182 -2.5 27.3125 C-2.16613281 28.00279297 -1.83226563 28.69308594 -1.48828125 29.40429688 C1 34.66015625 1 34.66015625 1 38 C1.99 37.34 2.98 36.68 4 36 C2.49457216 32.02692129 0.93977278 28.07504246 -0.625 24.125 C-1.05167969 22.99707031 -1.47835937 21.86914062 -1.91796875 20.70703125 C-2.34980469 19.63066406 -2.78164062 18.55429688 -3.2265625 17.4453125 C-3.61408691 16.45031738 -4.00161133 15.45532227 -4.40087891 14.43017578 C-6.48939494 11.25626912 -8.37889834 10.84506967 -12 10 C-12 9.01 -12 8.02 -12 7 C-10.948125 6.773125 -9.89625 6.54625 -8.8125 6.3125 C-4.8402094 5.20639469 -2.70400363 3.11370115 0 0 Z " fill="#4F2DA1" transform="translate(106,63)"/>
<path d="M0 0 C12.11157968 7.15684254 19.3672289 17.68078309 24 31 C23.67 31.99 23.34 32.98 23 34 C22.12786865 33.7326001 21.2557373 33.4652002 20.35717773 33.18969727 C17.09506752 32.19222474 13.83160432 31.19944085 10.56713867 30.2097168 C9.15934935 29.78187666 7.75211065 29.35222008 6.34545898 28.9206543 C4.3137887 28.29768557 2.28017329 27.68145639 0.24609375 27.06640625 C-0.97408447 26.69459229 -2.1942627 26.32277832 -3.45141602 25.93969727 C-6.99933743 25.00017545 -10.36396873 24.44252315 -14 24 C-12.55195485 13.52790533 -6.95966287 7.43230551 0 0 Z " fill="#7936AC" transform="translate(140,41)"/>
<path d="M0 0 C3.51835199 1.7257033 4.94000035 3.18912167 7.03515625 6.59375 C8.35336649 11.53703839 8.63033373 15.56446001 6.01953125 20.11328125 C3.4764052 23.42095469 1.11653347 25.48950826 -2.96484375 26.34375 C-8.85028184 26.1569107 -12.32272545 25.21218192 -16.96484375 21.34375 C-19.53781075 17.1406498 -19.64011909 13.14570794 -18.96484375 8.34375 C-15.02053182 0.45512614 -8.56094448 -2.85932142 0 0 Z " fill="#4F82F0" transform="translate(252.96484375,89.65625)"/>
<path d="M0 0 C3.04170461 2.64496053 3.7372396 4.09498709 4.28125 8.0390625 C4.44888212 11.76887727 4.32294102 15.01336154 2 18 C-1.67445847 21.11772233 -5.10801221 21.57389026 -9.77734375 21.42578125 C-13.62277425 20.68913463 -15.35774131 18.8404281 -18 16 C-19.68676515 10.93970456 -19.67201683 7.42157406 -17.375 2.5625 C-13.06491001 -2.07240836 -5.69292652 -1.02625228 0 0 Z " fill="#F88691" transform="translate(151,0)"/>
<path d="M0 0 C3.125 2.1875 3.125 2.1875 5 5 C4.8125 7.8125 4.8125 7.8125 4 10 C0.125 8.125 0.125 8.125 -1 7 C-3.69082872 7.17635452 -6.32851446 7.61835921 -9 8 C-9.33 11.63 -9.66 15.26 -10 19 C-7.36 19 -4.72 19 -2 19 C-2 19.66 -2 20.32 -2 21 C-3.65 20.67 -5.3 20.34 -7 20 C-6.21979957 26.70299554 -6.21979957 26.70299554 -4 33 C-6.6875 33.375 -6.6875 33.375 -10 33 C-15.17265708 28.29758447 -16.56824426 23.29098783 -17.25390625 16.4765625 C-17.57264378 9.62884653 -15.91369762 6.2374418 -11.3125 1.125 C-7.59544267 -0.68329816 -4.03807968 -0.76745031 0 0 Z " fill="#EF502D" transform="translate(170,230)"/>
<path d="M0 0 C0.66 0.33 1.32 0.66 2 1 C2.66 0.67 3.32 0.34 4 0 C5.57328857 3.78753248 7.13966727 7.57784014 8.69970703 11.37084961 C9.23134392 12.66069346 9.76486022 13.94976435 10.30029297 15.23803711 C11.06972387 17.09023857 11.83183735 18.94547446 12.59375 20.80078125 C13.05458984 21.91622314 13.51542969 23.03166504 13.99023438 24.1809082 C15 27 15 27 15 30 C12.5433053 31.00419637 10.08481647 32.00350501 7.625 33 C6.92632812 33.28617188 6.22765625 33.57234375 5.5078125 33.8671875 C0.2265625 36 0.2265625 36 -2 36 C-1.34 34.68 -0.68 33.36 0 32 C-0.99 31.01 -1.98 30.02 -3 29 C-2.67 28.34 -2.34 27.68 -2 27 C-0.68 27.66 0.64 28.32 2 29 C0.35 25.37 -1.3 21.74 -3 18 C-3.33 20.31 -3.66 22.62 -4 25 C-4.66 24.67 -5.32 24.34 -6 24 C-6 20.37 -6 16.74 -6 13 C-5.01 13 -4.02 13 -3 13 C-2.34 12.01 -1.68 11.02 -1 10 C0.17374173 12.43431639 1.33915763 14.87204182 2.5 17.3125 C2.83386719 18.00279297 3.16773437 18.69308594 3.51171875 19.40429688 C6 24.66015625 6 24.66015625 6 28 C6.99 27.34 7.98 26.68 9 26 C8.53775024 24.92516357 8.53775024 24.92516357 8.06616211 23.82861328 C6.68187063 20.59746351 5.30955629 17.36136302 3.9375 14.125 C3.20950195 12.43310547 3.20950195 12.43310547 2.46679688 10.70703125 C2.01240234 9.63066406 1.55800781 8.55429688 1.08984375 7.4453125 C0.66566162 6.45031738 0.24147949 5.45532227 -0.19555664 4.43017578 C-1 2 -1 2 0 0 Z " fill="#4B2B9C" transform="translate(101,73)"/>
<path d="M0 0 C4.23632385 7.87746171 4.23632385 7.87746171 3.25 12.5625 C2.8375 13.366875 2.425 14.17125 2 15 C-2 9 -2 9 -2 5 C-2.99 5.66 -3.98 6.32 -5 7 C-4.71995117 7.64686768 -4.43990234 8.29373535 -4.15136719 8.96020508 C-1.19391792 16.31525851 -0.35622406 22.80277805 -0.25 30.6875 C-0.22035156 31.78255859 -0.19070312 32.87761719 -0.16015625 34.00585938 C-0.0903366 36.67064278 -0.03721107 39.33459637 0 42 C-0.99 41.34 -1.98 40.68 -3 40 C-3.29296875 36.7421875 -3.29296875 36.7421875 -3.1875 32.875 C-3.16042969 31.59367187 -3.13335937 30.31234375 -3.10546875 28.9921875 C-3.07066406 28.00476563 -3.03585938 27.01734375 -3 26 C-3.99 26.33 -4.98 26.66 -6 27 C-8.62386487 23.93882432 -9 23.26826873 -9 19 C-10.32 19.33 -11.64 19.66 -13 20 C-13.66 19.01 -14.32 18.02 -15 17 C-13.38731308 14.28775382 -11.75098126 11.62647188 -10 9 C-9.01 9.33 -8.02 9.66 -7 10 C-7 8.35 -7 6.7 -7 5 C-8.97536745 5.34786708 -8.97536745 5.34786708 -11 6 C-11.33 6.66 -11.66 7.32 -12 8 C-14.875 8.1875 -14.875 8.1875 -18 8 C-18.66 7.01 -19.32 6.02 -20 5 C-19.34 4.01 -18.68 3.02 -18 2 C-17.67 3.32 -17.34 4.64 -17 6 C-15.94039063 5.566875 -14.88078125 5.13375 -13.7890625 4.6875 C-12.40111517 4.12481865 -11.0130903 3.56232855 -9.625 3 C-8.92632812 2.71382813 -8.22765625 2.42765625 -7.5078125 2.1328125 C-2.2265625 0 -2.2265625 0 0 0 Z M-20 8 C-19.01 8.495 -19.01 8.495 -18 9 C-18.99 9.495 -18.99 9.495 -20 10 C-20 9.34 -20 8.68 -20 8 Z " fill="#5E30CA" transform="translate(119,108)"/>
<path d="M0 0 C1.32 0 2.64 0 4 0 C4.33 1.98 4.66 3.96 5 6 C4.34 6 3.68 6 3 6 C3.33 9.3 3.66 12.6 4 16 C4.99 16 5.98 16 7 16 C7 16.66 7 17.32 7 18 C7.99 18 8.98 18 10 18 C10 17.34 10 16.68 10 16 C11.9375 16.3125 11.9375 16.3125 14 17 C14.33 17.99 14.66 18.98 15 20 C11.52176885 21.15941038 9.54104422 20.70820884 6 20 C6.08701172 21.66289062 6.08701172 21.66289062 6.17578125 23.359375 C6.22268829 24.82287452 6.26818745 26.28641963 6.3125 27.75 C6.3753418 28.84441406 6.3753418 28.84441406 6.43945312 29.9609375 C6.48828125 32.109375 6.48828125 32.109375 6 36 C3.48046875 38.515625 3.48046875 38.515625 1 40 C0.01 39.34 -0.98 38.68 -2 38 C-2.25334147 35.2494355 -2.32733738 32.74430521 -2.25 30 C-2.23904297 29.22978516 -2.22808594 28.45957031 -2.21679688 27.66601562 C-2.12300125 22.81718941 -1.81237597 18.03371624 -1.21875 13.21875 C-0.97989836 10.79611192 -0.96919716 8.43342402 -1 6 C-1 2 -1 2 0 0 Z " fill="#F1512B" transform="translate(92,226)"/>
<path d="M0 0 C0.66 0.33 1.32 0.66 2 1 C2.73075648 3.3140622 3.40138258 5.64828869 4 8 C4.66 8 5.32 8 6 8 C6.515625 9.175625 7.03125 10.35125 7.5625 11.5625 C9.9147374 16.29208766 13.15563424 19.4591368 17 23 C17.59296875 23.6703125 18.1859375 24.340625 18.796875 25.03125 C21.57539852 27.51418591 24.25429177 28.49154504 27.75 29.75 C28.92046875 30.17796875 30.0909375 30.6059375 31.296875 31.046875 C32.18890625 31.36140625 33.0809375 31.6759375 34 32 C33 34 33 34 30.5859375 34.81640625 C10.59965947 39.46041976 -10.17799383 39.03209926 -28.4375 28.6875 C-29.283125 28.130625 -30.12875 27.57375 -31 27 C-27.25 25.875 -27.25 25.875 -25 27 C-25 27.66 -25 28.32 -25 29 C-23.44033782 29.508783 -21.87710759 30.00663469 -20.3125 30.5 C-19.44238281 30.7784375 -18.57226562 31.056875 -17.67578125 31.34375 C-14.9623784 32.0092269 -12.77927669 32.26514394 -10 32 C-9.34 31.34 -8.68 30.68 -8 30 C-6.68 30 -5.36 30 -4 30 C-3.67 31.65 -3.34 33.3 -3 35 C0.58331625 35.02907084 4.16660208 35.04682263 7.75 35.0625 C8.76578125 35.07087891 9.7815625 35.07925781 10.828125 35.08789062 C11.8078125 35.09111328 12.7875 35.09433594 13.796875 35.09765625 C14.69760742 35.10289307 15.59833984 35.10812988 16.52636719 35.11352539 C18.83389804 35.00762312 20.79134405 34.65132813 23 34 C23 33.34 23 32.68 23 32 C22.34 31.67 21.68 31.34 21 31 C21 30.34 21 29.68 21 29 C20.01 29 19.02 29 18 29 C17.505 28.01 17.505 28.01 17 27 C16.01 26.67 15.02 26.34 14 26 C12.98189105 24.00915742 11.98456395 22.00764385 11 20 C9.53678926 18.24206054 8.01404398 16.53205941 6.4375 14.875 C0.08372828 8.17693523 0.08372828 8.17693523 -0.125 2.75 C-0.08375 1.8425 -0.0425 0.935 0 0 Z " fill="#3B68CD" transform="translate(119,150)"/>
<path d="M0 0 C1.65 0.33 3.3 0.66 5 1 C5 2.32 5 3.64 5 5 C5.66 5 6.32 5 7 5 C8.20568053 9.67201205 8.09382426 14.21496292 8 19 C7.34 19 6.68 19 6 19 C6.144375 19.67546875 6.28875 20.3509375 6.4375 21.046875 C6.623125 21.93890625 6.80875 22.8309375 7 23.75 C7.185625 24.63171875 7.37125 25.5134375 7.5625 26.421875 C8 29 8 29 8 33 C5.69 33 3.38 33 1 33 C0.01 23.1 -0.98 13.2 -2 3 C-1.01 3.33 -0.02 3.66 1 4 C0.67 2.68 0.34 1.36 0 0 Z " fill="#F24F2B" transform="translate(130,231)"/>
<path d="M0 0 C3.125 0.375 3.125 0.375 6 1 C6.33 1.99 6.66 2.98 7 4 C8.65 4 10.3 4 12 4 C12 4.66 12 5.32 12 6 C12.598125 6.0825 13.19625 6.165 13.8125 6.25 C16.76224781 7.26134211 17.54953762 8.24412147 19 11 C19.26274852 14.7441664 19.18823797 17.43528609 18 21 C17.34 21 16.68 21 16 21 C16 21.66 16 22.32 16 23 C13.03 23.66 10.06 24.32 7 25 C8.175625 23.7625 8.175625 23.7625 9.375 22.5 C12.41164 18.90420533 13.13190957 15.57720406 14 11 C10.7 10.34 7.4 9.68 4 9 C3.67 10.32 3.34 11.64 3 13 C0.525 12.01 0.525 12.01 -2 11 C-2.05399736 9.54207116 -2.09279177 8.08357288 -2.125 6.625 C-2.15980469 5.40683594 -2.15980469 5.40683594 -2.1953125 4.1640625 C-2 2 -2 2 0 0 Z " fill="#E85331" transform="translate(186,228)"/>
<path d="M0 0 C0.19644384 1.89492746 0.38177288 3.79100903 0.5625 5.6875 C0.66691406 6.74324219 0.77132812 7.79898438 0.87890625 8.88671875 C0.99277552 11.81426086 0.70848415 14.17131144 0 17 C1.27875 17.309375 2.5575 17.61875 3.875 17.9375 C6.10101675 18.47605244 7.94739999 18.9737 10 20 C10 20.66 10 21.32 10 22 C10.99 22.33 11.98 22.66 13 23 C4.64346574 22.67859484 -3.17106994 19.58439335 -9.32421875 13.82421875 C-10.97806571 11.93554565 -12.53258908 10.03577431 -14 8 C-11.72402354 5.50447597 -9.39278822 3.93377014 -6.4375 2.3125 C-5.65246094 1.87550781 -4.86742187 1.43851563 -4.05859375 0.98828125 C-2 0 -2 0 0 0 Z " fill="#D1597F" transform="translate(144,160)"/>
<path d="M0 0 C-0.62695312 1.87988281 -0.62695312 1.87988281 -2 4 C-4.63867188 5.09667969 -4.63867188 5.09667969 -7.96875 5.921875 C-9.18046875 6.22480469 -10.3921875 6.52773437 -11.640625 6.83984375 C-13.55101562 7.29037109 -13.55101562 7.29037109 -15.5 7.75 C-17.36398438 8.22373047 -17.36398438 8.22373047 -19.265625 8.70703125 C-36.92383982 13.0098241 -36.92383982 13.0098241 -44 9 C-42.68 9 -41.36 9 -40 9 C-40 8.34 -40 7.68 -40 7 C-42.64 6.67 -45.28 6.34 -48 6 C-47.67 5.34 -47.34 4.68 -47 4 C-45.17708333 4.52083333 -43.35416667 5.04166667 -41.53125 5.5625 C-33.34219243 6.97789267 -26.29022592 5.06241802 -18.375 3 C-16.17613468 2.43106282 -13.9756484 1.8683465 -11.7734375 1.3125 C-10.80841309 1.06113281 -9.84338867 0.80976562 -8.84912109 0.55078125 C-5.83455222 -0.03198374 -3.06285321 -0.09520062 0 0 Z " fill="#613383" transform="translate(166,83)"/>
<path d="M0 0 C1.32 0.33 2.64 0.66 4 1 C4 1.99 4 2.98 4 4 C-0.455 5.485 -0.455 5.485 -5 7 C-2.47702364 7.06537205 -2.47702364 7.06537205 2 6 C2 12.6 2 19.2 2 26 C1.67 26 1.34 26 1 26 C1 20.06 1 14.12 1 8 C0.34 8 -0.32 8 -1 8 C-1 14.6 -1 21.2 -1 28 C-0.01 28 0.98 28 2 28 C2 28.66 2 29.32 2 30 C0.35 29.67 -1.3 29.34 -3 29 C-3.33 25.7 -3.66 22.4 -4 19 C-4.99 19 -5.98 19 -7 19 C-7.28875 19.639375 -7.5775 20.27875 -7.875 20.9375 C-9 23 -9 23 -11 24 C-10.505 22.515 -10.505 22.515 -10 21 C-9.93059361 19.0010961 -9.91544132 16.99998686 -9.9375 15 C-9.94652344 13.948125 -9.95554688 12.89625 -9.96484375 11.8125 C-9.97644531 10.884375 -9.98804688 9.95625 -10 9 C-10 7.66666667 -10 6.33333333 -10 5 C-6.04 4.01 -2.08 3.02 2 2 C1.34 1.34 0.68 0.68 0 0 Z " fill="#C98E69" transform="translate(174,77)"/>
<path d="M0 0 C2 2 2 2 2.265625 4.09375 C2.26046875 4.8878125 2.2553125 5.681875 2.25 6.5 C2.25515625 7.2940625 2.2603125 8.088125 2.265625 8.90625 C2 11 2 11 0 13 C-3.02382688 13.98070061 -4.62085839 14.11462421 -7.6875 13.1875 C-10 12 -10 12 -12 10 C-12.56321839 3.8045977 -12.56321839 3.8045977 -10.6875 1.125 C-6.93371764 -1.37752158 -4.22997719 -0.98999466 0 0 Z " fill="#F4C079" transform="translate(57,168)"/>
<path d="M0 0 C5 5 10 10 15 15 C14.01 15.33 13.02 15.66 12 16 C10.57518232 17.76622169 10.57518232 17.76622169 10 20 C10.62775567 21.35208914 11.30419733 22.68163705 12 24 C12.47628059 26.66307428 12.73045355 29.30453552 13 32 C9.01214132 28.60065791 7.34579007 24.90954788 5.375 20.1875 C5.0759375 19.50107422 4.776875 18.81464844 4.46875 18.10742188 C1.96317848 12.24815396 -0.3928215 6.48155472 0 0 Z " fill="#3C6ADC" transform="translate(51,122)"/>
<path d="M0 0 C1.1034375 -0.00257812 2.206875 -0.00515625 3.34375 -0.0078125 C6.18492244 0.11174179 8.73807642 0.47574185 11.5 1.125 C11.5 1.455 11.5 1.785 11.5 2.125 C10.48421875 2.09019531 9.4684375 2.05539063 8.421875 2.01953125 C-0.38392034 1.81122442 -8.01762495 2.48632491 -16.5 5.125 C-17.91604892 5.5230376 -19.33261323 5.91925297 -20.75 6.3125 C-21.6575 6.580625 -22.565 6.84875 -23.5 7.125 C-23.83 9.435 -24.16 11.745 -24.5 14.125 C-22.19 14.455 -19.88 14.785 -17.5 15.125 C-17.5 17.765 -17.5 20.405 -17.5 23.125 C-16.84 23.125 -16.18 23.125 -15.5 23.125 C-15.066875 24.15625 -14.63375 25.1875 -14.1875 26.25 C-13.14814774 28.71162377 -12.04263056 30.95806577 -10.75 33.3125 C-9.37612788 36.40371227 -9.52791789 37.05768685 -10.5 40.125 C-11.01949219 39.11179688 -11.53898437 38.09859375 -12.07421875 37.0546875 C-12.77826177 35.7029249 -13.48271059 34.35137359 -14.1875 33 C-14.52716797 32.33484375 -14.86683594 31.6696875 -15.21679688 30.984375 C-18.36028247 24.9911875 -22.04323537 20.0893944 -27.3125 15.75 C-27.91707031 15.24726562 -28.52164063 14.74453125 -29.14453125 14.2265625 C-29.59183594 13.86304688 -30.03914062 13.49953125 -30.5 13.125 C-29.5 10.125 -29.5 10.125 -27.625 9.125 C-26.92375 8.795 -26.2225 8.465 -25.5 8.125 C-25.07203125 7.65320312 -24.6440625 7.18140625 -24.203125 6.6953125 C-22.01526265 4.67806326 -19.92819659 3.97535881 -17.125 3 C-16.18914062 2.66742187 -15.25328125 2.33484375 -14.2890625 1.9921875 C-9.42590905 0.48011458 -5.09742759 -0.01190988 0 0 Z " fill="#D09C78" transform="translate(172.5,28.875)"/>
<path d="M0 0 C0.53625 0.226875 1.0725 0.45375 1.625 0.6875 C1.955 2.3375 2.285 3.9875 2.625 5.6875 C0.975 6.3475 -0.675 7.0075 -2.375 7.6875 C-1.715 8.0175 -1.055 8.3475 -0.375 8.6875 C0.29296875 10.46484375 0.29296875 10.46484375 0.8125 12.625 C1.08126953 13.69041016 1.08126953 13.69041016 1.35546875 14.77734375 C1.625 16.6875 1.625 16.6875 0.625 18.6875 C1.285 19.6775 1.945 20.6675 2.625 21.6875 C2.88260279 24.38202521 2.71400053 26.97298375 2.625 29.6875 C0.645 30.6775 0.645 30.6775 -1.375 31.6875 C-2.035 31.0275 -2.695 30.3675 -3.375 29.6875 C-3.045 28.6975 -2.715 27.7075 -2.375 26.6875 C-2.045 27.3475 -1.715 28.0075 -1.375 28.6875 C-0.715 28.6875 -0.055 28.6875 0.625 28.6875 C0.12243505 21.64228387 -2.8164173 16.75953152 -6.3125 10.74023438 C-6.71726562 10.01771484 -7.12203125 9.29519531 -7.5390625 8.55078125 C-7.91498535 7.90407471 -8.2909082 7.25736816 -8.67822266 6.59106445 C-9.53820109 4.24164193 -9.18743958 3.01156762 -8.375 0.6875 C-8.375 1.3475 -8.375 2.0075 -8.375 2.6875 C-7.01375 1.9140625 -7.01375 1.9140625 -5.625 1.125 C-2.375 -0.3125 -2.375 -0.3125 0 0 Z " fill="#CC4A72" transform="translate(134.375,112.3125)"/>
<path d="M0 0 C3 1 3 1 4.6875 4.25 C5.83944321 7.54126631 6.31025348 9.5872117 6 13 C6.99 13 7.98 13 9 13 C8.34 12.67 7.68 12.34 7 12 C7.66 10.68 8.32 9.36 9 8 C10.32 8.33 11.64 8.66 13 9 C12.34 13.29 11.68 17.58 11 22 C5 21 5 21 2.6875 17.8125 C-0.15957848 12.000207 -0.10929732 6.33924473 0 0 Z " fill="#F34E29" transform="translate(62,242)"/>
<path d="M0 0 C-0.51683484 5.1683484 -1.15088018 10.30279267 -1.9375 15.4375 C-2.09089844 16.44683594 -2.24429688 17.45617187 -2.40234375 18.49609375 C-3 21 -3 21 -5 23 C-5.69748583 24.31747324 -6.36959957 25.64914193 -7 27 C-7 26.34 -7 25.68 -7 25 C-7.99 24.67 -8.98 24.34 -10 24 C-9.80083984 22.85724609 -9.80083984 22.85724609 -9.59765625 21.69140625 C-8.7564125 16.77289353 -7.95666579 11.91384308 -7.5625 6.9375 C-7 3 -7 3 -5.71484375 1.25390625 C-4 0 -4 0 0 0 Z " fill="#F04F2B" transform="translate(85,215)"/>
<path d="M0 0 C3 2 3 2 3.875 4.3125 C4 7 4 7 3.0625 9.8125 C1 12 1 12 -0.9140625 12.3828125 C-3.0625 12.4375 -3.0625 12.4375 -7 12 C-9 10 -9 10 -9.3125 6.5625 C-9 3 -9 3 -7.875 1.0625 C-5.14015561 -0.48724515 -3.0875593 -0.32162076 0 0 Z " fill="#D1858F" transform="translate(226,119)"/>
<path d="M0 0 C0.66 0.33 1.32 0.66 2 1 C1.60167969 1.40089844 1.20335937 1.80179688 0.79296875 2.21484375 C-3.49786291 6.8188748 -5.30326093 11.00648284 -7 17 C-7.33 17.66 -7.66 18.32 -8 19 C-7.34 19.33 -6.68 19.66 -6 20 C-7.93558599 20.67220351 -9.87354372 21.33758077 -11.8125 22 C-12.89144531 22.37125 -13.97039062 22.7425 -15.08203125 23.125 C-18 24 -18 24 -21 24 C-20.34 27.3 -19.68 30.6 -19 34 C-19.66 33.67 -20.32 33.34 -21 33 C-21.37890625 30.8203125 -21.37890625 30.8203125 -21.5625 28.125 C-21.77628346 25.13203161 -22.04428957 22.8671313 -23 20 C-23.66 19.67 -24.32 19.34 -25 19 C-22.33333333 19 -19.66666667 19 -17 19 C-17 19.66 -17 20.32 -17 21 C-16.34 20.67 -15.68 20.34 -15 20 C-14.855625 19.360625 -14.71125 18.72125 -14.5625 18.0625 C-14 16 -14 16 -11 14 C-9.80767387 11.94996045 -9.80767387 11.94996045 -9 10 C-8.01 10 -7.02 10 -6 10 C-5.87625 9.4225 -5.7525 8.845 -5.625 8.25 C-4.49214888 4.17173596 -3.59417771 2.39611848 0 0 Z " fill="#5C2BC1" transform="translate(134,46)"/>
<path d="M0 0 C5.86516415 6.98233828 6.59021521 16.88663417 6.34765625 25.703125 C5.32021907 35.44646185 1.70393576 47.3757378 -6.1875 53.7734375 C-6.785625 54.17820313 -7.38375 54.58296875 -8 55 C-6.87548273 52.0280615 -5.77706209 49.66559313 -4 47 C-3.34 47 -2.68 47 -2 47 C-1.8659375 46.14535156 -1.731875 45.29070312 -1.59375 44.41015625 C-1.0086559 41.04971448 -0.28377169 37.7567731 0.5 34.4375 C1.00520916 32.29288712 1.50554484 30.14711779 2 28 C2.20238281 27.18660156 2.40476563 26.37320313 2.61328125 25.53515625 C3.10974276 22.28057525 2.92443109 19.28167241 2.6875 16 C2.60886719 14.80375 2.53023437 13.6075 2.44921875 12.375 C2.02891612 9.21724805 1.20640386 6.91506565 0 4 C0 2.68 0 1.36 0 0 Z " fill="#E6B473" transform="translate(216,56)"/>
<path d="M0 0 C0.66 0.33 1.32 0.66 2 1 C-0.23775234 4.3566285 -0.93320048 4.57996014 -4.625 5.6875 C-5.44226563 5.93886719 -6.25953125 6.19023438 -7.1015625 6.44921875 C-8.04128906 6.72185547 -8.04128906 6.72185547 -9 7 C-9 7.99 -9 8.98 -9 10 C-10.98 10.33 -12.96 10.66 -15 11 C-15 12.65 -15 14.3 -15 16 C-16.65 16.33 -18.3 16.66 -20 17 C-23 13.375 -23 13.375 -23 10 C-26.3 10 -29.6 10 -33 10 C-33 9.67 -33 9.34 -33 9 C-31.77925781 8.84144531 -30.55851563 8.68289062 -29.30078125 8.51953125 C-13.57874278 6.96193514 -13.57874278 6.96193514 0 0 Z " fill="#D74C70" transform="translate(161,101)"/>
<path d="M0 0 C0.99 0.495 0.99 0.495 2 1 C2.73075648 3.3140622 3.40138258 5.64828869 4 8 C4.66 8 5.32 8 6 8 C6.515625 9.175625 7.03125 10.35125 7.5625 11.5625 C9.9147374 16.29208766 13.15563424 19.4591368 17 23 C17.59296875 23.6703125 18.1859375 24.340625 18.796875 25.03125 C21.57539852 27.51418591 24.25429177 28.49154504 27.75 29.75 C28.92046875 30.17796875 30.0909375 30.6059375 31.296875 31.046875 C32.18890625 31.36140625 33.0809375 31.6759375 34 32 C33.505 32.99 33.505 32.99 33 34 C29.52674819 35.1577506 26.63932552 35.06866652 23 35 C23 34.01 23 33.02 23 32 C22.34 31.67 21.68 31.34 21 31 C21 30.34 21 29.68 21 29 C20.01 29 19.02 29 18 29 C17.67 28.34 17.34 27.68 17 27 C16.01 26.67 15.02 26.34 14 26 C12.98189105 24.00915742 11.98456395 22.00764385 11 20 C9.53678926 18.24206054 8.01404398 16.53205941 6.4375 14.875 C0.08372828 8.17693523 0.08372828 8.17693523 -0.125 2.75 C-0.08375 1.8425 -0.0425 0.935 0 0 Z " fill="#4E66D2" transform="translate(119,150)"/>
<path d="M0 0 C4.23632385 7.87746171 4.23632385 7.87746171 3.25 12.5625 C2.8375 13.366875 2.425 14.17125 2 15 C-2 9 -2 9 -2 5 C-2.99 5.66 -3.98 6.32 -5 7 C-4.67 8.98 -4.34 10.96 -4 13 C-6.5654594 10.4345406 -6.54046087 8.52313332 -7 5 C-8.97536745 5.34786708 -8.97536745 5.34786708 -11 6 C-11.33 6.66 -11.66 7.32 -12 8 C-14.875 8.1875 -14.875 8.1875 -18 8 C-18.66 7.01 -19.32 6.02 -20 5 C-19.34 4.01 -18.68 3.02 -18 2 C-17.67 3.32 -17.34 4.64 -17 6 C-15.94039063 5.566875 -14.88078125 5.13375 -13.7890625 4.6875 C-12.40111517 4.12481865 -11.0130903 3.56232855 -9.625 3 C-8.92632812 2.71382813 -8.22765625 2.42765625 -7.5078125 2.1328125 C-2.2265625 0 -2.2265625 0 0 0 Z M-20 8 C-19.01 8.495 -19.01 8.495 -18 9 C-18.99 9.495 -18.99 9.495 -20 10 C-20 9.34 -20 8.68 -20 8 Z " fill="#482896" transform="translate(119,108)"/>
<path d="M0 0 C-0.33 0.66 -0.66 1.32 -1 2 C-2.64666203 1.8864371 -4.29236082 1.75882619 -5.9375 1.625 C-6.85402344 1.55539063 -7.77054688 1.48578125 -8.71484375 1.4140625 C-9.46894531 1.27742188 -10.22304687 1.14078125 -11 1 C-11.495 0.01 -11.495 0.01 -12 -1 C-23.30165347 -4.17778918 -37.75526126 -1.07045346 -48 4 C-49.3303125 4.64388672 -49.3303125 4.64388672 -50.6875 5.30078125 C-53.13894219 6.50868663 -55.57125063 7.74727664 -58 9 C-59.33242259 9.66848505 -60.66545013 10.33577198 -62 11 C-47.89289515 -4.28926448 -18.87185949 -9.43592974 0 0 Z " fill="#6B459E" transform="translate(128,33)"/>
<path d="M0 0 C0.99 0.495 0.99 0.495 2 1 C2.48715584 3.66732857 2.8480487 6.24675037 3.125 8.9375 C3.20991699 9.70570068 3.29483398 10.47390137 3.38232422 11.26538086 C3.96847245 16.8703496 4.1789644 22.36262154 4 28 C6.31 28 8.62 28 11 28 C10.67 27.175 10.34 26.35 10 25.5 C8.83217191 21.4126017 8.8541115 18.23076656 9 14 C9.66 14 10.32 14 11 14 C11 11.69 11 9.38 11 7 C11.99 7.33 12.98 7.66 14 8 C13.83242187 8.64066406 13.66484375 9.28132812 13.4921875 9.94140625 C12.10851916 15.81761799 12.27934937 19.14978786 14 25 C12.9375 27.875 12.9375 27.875 11 30 C8.5 30.9375 8.5 30.9375 6 31 C3 29 3 29 2.34375 26.86328125 C1.91716059 23.30998535 1.68337316 19.75972617 1.5 16.1875 C1.1941557 10.75521087 0.78539389 5.38555808 0 0 Z " fill="#C7573E" transform="translate(127,236)"/>
<path d="M0 0 C2 2 2 2 2.375 4.9375 C2 8 2 8 0.3125 9.9375 C-2.61449654 11.28233625 -3.98584989 11.03115662 -7 10 C-9 8 -9 8 -9.375 5.0625 C-9 2 -9 2 -7.3125 0.0625 C-4.38550346 -1.28233625 -3.01415011 -1.03115662 0 0 Z " fill="#825CB5" transform="translate(33,105)"/>
<path d="M0 0 C0.66 3.63 1.32 7.26 2 11 C0.35 10.67 -1.3 10.34 -3 10 C-3.66 11.32 -4.32 12.64 -5 14 C-5.66 13.34 -6.32 12.68 -7 12 C-9.57061311 11.35232207 -9.57061311 11.35232207 -12 11 C-12.33 10.01 -12.66 9.02 -13 8 C-12.67 7.34 -12.34 6.68 -12 6 C-9.4375 5.375 -9.4375 5.375 -7 5 C-6.67 4.01 -6.34 3.02 -6 2 C-3.85412616 0.684787 -2.52986895 0 0 0 Z " fill="#C75C86" transform="translate(204,116)"/>
<path d="M0 0 C0.33 0 0.66 0 1 0 C0.98952637 1.03930664 0.97905273 2.07861328 0.96826172 3.14941406 C0.93202064 7.01086981 0.90908459 10.87231057 0.89013672 14.73388672 C0.8800885 16.40415985 0.86644764 18.07441542 0.84912109 19.74462891 C0.82482074 22.14750504 0.81350513 24.55014827 0.8046875 26.953125 C0.79436493 27.69806213 0.78404236 28.44299927 0.77340698 29.21051025 C0.77259632 32.96927642 0.89632882 35.81173711 3 39 C5.61528046 38.00878369 5.61528046 38.00878369 8 36 C8.5689492 32.64220236 8.5689492 32.64220236 8.25 28.9375 C7.94039735 22.1192053 7.94039735 22.1192053 9 20 C10.98 20 12.96 20 15 20 C15.33 20.66 15.66 21.32 16 22 C14.02 22.66 12.04 23.32 10 24 C10.04640625 24.89203125 10.0928125 25.7840625 10.140625 26.703125 C10.17671875 27.87359375 10.2128125 29.0440625 10.25 30.25 C10.29640625 31.41015625 10.3428125 32.5703125 10.390625 33.765625 C10 37 10 37 8.1484375 39.39453125 C6 41 6 41 3.375 41.4375 C2.59125 41.293125 1.8075 41.14875 1 41 C-1.48110428 37.27834358 -1.24465064 35.35912617 -1.23046875 30.91796875 C-1.23001053 30.2261702 -1.22955231 29.53437164 -1.2290802 28.8216095 C-1.22606139 27.35818772 -1.21818613 25.89476905 -1.20581055 24.43139648 C-1.18765178 22.20609977 -1.18530035 19.98122219 -1.18554688 17.75585938 C-1.14469656 5.92216329 -1.14469656 5.92216329 0 0 Z " fill="#C05843" transform="translate(89,226)"/>
<path d="M0 0 C3.87255275 3.35735727 5.72748777 6.99134211 7.8125 11.5625 C8.13669922 12.23474609 8.46089844 12.90699219 8.79492188 13.59960938 C11.12519466 18.62441601 11.12519466 18.62441601 10 22 C1.42 19.36 -7.16 16.72 -16 14 C-16 13.67 -16 13.34 -16 13 C-14.39504433 13.11442461 -12.79101881 13.24194694 -11.1875 13.375 C-9.84751953 13.47941406 -9.84751953 13.47941406 -8.48046875 13.5859375 C-6 14 -6 14 -3 16 C-0.94290404 16.24055468 -0.94290404 16.24055468 1.1875 16.125 C2.445625 16.08375 3.70375 16.0425 5 16 C5.33 14.35 5.66 12.7 6 11 C5.34 11 4.68 11 4 11 C0.71428571 3.57142857 0.71428571 3.57142857 0 0 Z " fill="#743B8A" transform="translate(153,53)"/>
<path d="M0 0 C0.33 0 0.66 0 1 0 C0.39202006 6.6540027 -0.76100512 12.95750269 -2.375 19.4375 C-2.58382812 20.33404297 -2.79265625 21.23058594 -3.0078125 22.15429688 C-3.21921875 23.00958984 -3.430625 23.86488281 -3.6484375 24.74609375 C-3.92953369 25.90129517 -3.92953369 25.90129517 -4.21630859 27.07983398 C-5 29 -5 29 -8 31 C-10.375 31.625 -10.375 31.625 -13 31 C-17.57415536 25.90024294 -20.74011236 18.39225361 -23 12 C-22.67 11.34 -22.34 10.68 -22 10 C-20.4933028 12.7881022 -18.99580196 15.58103958 -17.5 18.375 C-17.07074219 19.1690625 -16.64148438 19.963125 -16.19921875 20.78125 C-15.79316406 21.54179687 -15.38710937 22.30234375 -14.96875 23.0859375 C-14.59169922 23.7876709 -14.21464844 24.4894043 -13.82617188 25.21240234 C-13 27 -13 27 -13 29 C-11.02 29 -9.04 29 -7 29 C-6.95101562 28.41992188 -6.90203125 27.83984375 -6.8515625 27.2421875 C-6.77679688 26.46101563 -6.70203125 25.67984375 -6.625 24.875 C-6.55539063 24.10929687 -6.48578125 23.34359375 -6.4140625 22.5546875 C-5.92849146 19.55880578 -4.97449318 16.87313671 -4 14 C-3.17895207 10.58616915 -2.43170458 7.16092516 -1.68359375 3.73046875 C-1 1 -1 1 0 0 Z " fill="#C2533D" transform="translate(81,236)"/>
<path d="M0 0 C0.66 0 1.32 0 2 0 C3.17314026 2.76825188 4.33870215 5.53928486 5.5 8.3125 C5.83386719 9.09818359 6.16773438 9.88386719 6.51171875 10.69335938 C6.98544922 11.8293457 6.98544922 11.8293457 7.46875 12.98828125 C7.76201172 13.68477783 8.05527344 14.38127441 8.35742188 15.09887695 C9 17 9 17 9 20 C8.34 20 7.68 20 7 20 C7.33 21.32 7.66 22.64 8 24 C7.34 24 6.68 24 6 24 C4.79129704 21.32035677 3.60829071 18.63366375 2.4375 15.9375 C2.09525391 15.18533203 1.75300781 14.43316406 1.40039062 13.65820312 C-0.77961067 8.57153344 -1.31290277 5.40227205 0 0 Z " fill="#B65474" transform="translate(122,119)"/>
<path d="M0 0 C2.45369798 3.68054697 3.44052033 7.3872336 4.70703125 11.6015625 C5.78587104 14.26855719 5.78587104 14.26855719 8.63671875 14.8359375 C9.41660156 14.89007813 10.19648438 14.94421875 11 15 C10.67 15.99 10.34 16.98 10 18 C7.67793475 18.70491267 5.34406932 19.37212429 3 20 C2.67 20.66 2.34 21.32 2 22 C-0.35582065 17.37183267 -0.23521469 13.24465865 -0.125 8.1875 C-0.11597656 7.39923828 -0.10695313 6.61097656 -0.09765625 5.79882812 C-0.07422504 3.86575334 -0.03835838 1.9328362 0 0 Z " fill="#D54B7B" transform="translate(118,129)"/>
<path d="M0 0 C0.33 0.99 0.66 1.98 1 3 C3.64 3 6.28 3 9 3 C9 3.66 9 4.32 9 5 C7.35 4.67 5.7 4.34 4 4 C4.78020043 10.70299554 4.78020043 10.70299554 7 17 C5.35 17 3.7 17 2 17 C-1.32241475 11.73950997 -1.59251079 7.05044668 -1 1 C-0.67 0.67 -0.34 0.34 0 0 Z " fill="#F04E29" transform="translate(159,246)"/>
<path d="M0 0 C0.99 0 1.98 0 3 0 C3 0.66 3 1.32 3 2 C3.804375 2.2475 4.60875 2.495 5.4375 2.75 C6.283125 3.1625 7.12875 3.575 8 4 C8.625 6.0625 8.625 6.0625 9 8 C9.99 8.33 10.98 8.66 12 9 C12 9.66 12 10.32 12 11 C12.763125 10.773125 13.52625 10.54625 14.3125 10.3125 C17 10 17 10 18.8125 11.25 C20 13 20 13 20 16 C21.43750191 17.68798827 21.43750191 17.68798827 23 19 C22.34 19.33 21.68 19.66 21 20 C3.52167786 7.91939499 3.52167786 7.91939499 0 0 Z " fill="#3969D5" transform="translate(65,156)"/>
<path d="M0 0 C6.75 -0.125 6.75 -0.125 9 1 C9 1.66 9 2.32 9 3 C10.32 3 11.64 3 13 3 C15.03515625 5.37109375 15.03515625 5.37109375 17.0625 8.4375 C19.69961246 12.77252938 19.69961246 12.77252938 24 15 C24.6875 17.0625 24.6875 17.0625 25 19 C24.01 19 23.02 19 22 19 C22 18.34 22 17.68 22 17 C20.68 17 19.36 17 18 17 C18 15.35 18 13.7 18 12 C17.071875 11.5978125 17.071875 11.5978125 16.125 11.1875 C14 10 14 10 12 7 C9.70401807 5.91698965 7.36522558 4.92203709 5 4 C4.030625 3.608125 3.06125 3.21625 2.0625 2.8125 C1.381875 2.544375 0.70125 2.27625 0 2 C0 1.34 0 0.68 0 0 Z " fill="#E27C5C" transform="translate(176,97)"/>
<path d="M0 0 C0 0.33 0 0.66 0 1 C-0.59167969 1.08636719 -1.18335938 1.17273438 -1.79296875 1.26171875 C-5.70379328 1.95711822 -8.60347141 2.75216963 -12 4.875 C-15.03571115 9.61829867 -14.90298197 14.46997253 -15 20 C-14.34 20 -13.68 20 -13 20 C-12.49487756 21.60256108 -11.99608373 23.20711792 -11.5 24.8125 C-11.2215625 25.70582031 -10.943125 26.59914063 -10.65625 27.51953125 C-10 30 -10 30 -10 33 C-16.10134666 26.57752983 -17.50795939 20.05761143 -17.3203125 11.33203125 C-16.71037977 6.89142341 -14.19882592 4.3320288 -11.3125 1.125 C-7.66574774 -0.64909569 -3.98371984 -0.22982999 0 0 Z " fill="#C6553F" transform="translate(170,230)"/>
<path d="M0 0 C3.96 0 7.92 0 12 0 C11.67 1.98 11.34 3.96 11 6 C10.01 5.67 9.02 5.34 8 5 C5.66117862 5.29235267 3.32716 5.62599214 1 6 C-2 6 -2 6 -5 5 C-5 4.01 -5 3.02 -5 2 C-3.35 1.67 -1.7 1.34 0 1 C0 0.67 0 0.34 0 0 Z " fill="#EF502B" transform="translate(96,215)"/>
<path d="M0 0 C1.31157516 2.62315032 0.89649988 4.23033436 0.5625 7.125 C0.46066406 8.03507812 0.35882813 8.94515625 0.25390625 9.8828125 C0.17011719 10.58148438 0.08632812 11.28015625 0 12 C-0.66 12 -1.32 12 -2 12 C-2.33 13.65 -2.66 15.3 -3 17 C-3.12375 16.4225 -3.2475 15.845 -3.375 15.25 C-4.00648824 12.97664233 -4.88858191 11.0746471 -6 9 C-6.5775 9.37125 -7.155 9.7425 -7.75 10.125 C-10 11 -10 11 -12.25 10.125 C-12.8275 9.75375 -13.405 9.3825 -14 9 C-13.67 8.34 -13.34 7.68 -13 7 C-10.5084338 6.18733862 -7.99201799 5.59282068 -5.4453125 4.9765625 C-2.5769295 3.83104213 -1.60772342 2.58726352 0 0 Z " fill="#E15273" transform="translate(164,100)"/>
<path d="M0 0 C6.7281627 -0.22262303 12.53991163 0.04978464 19 2 C18.1875 3.9375 18.1875 3.9375 17 6 C16.01 6.33 15.02 6.66 14 7 C13.34 7.66 12.68 8.32 12 9 C10.85050412 8.21366078 9.70551011 7.42073742 8.5625 6.625 C7.92441406 6.18414062 7.28632813 5.74328125 6.62890625 5.2890625 C5 4 5 4 4 2 C1.98330173 0.86649466 1.98330173 0.86649466 0 0 Z " fill="#516BB2" transform="translate(129,33)"/>
<path d="M0 0 C0.58007812 0.08378906 1.16015625 0.16757812 1.7578125 0.25390625 C6.42315303 0.86209421 10.35442117 1.07205665 15 0 C15 1.65 15 3.3 15 5 C9.86813609 7.23696632 5.37794962 7.3337315 0 6 C-0.66 5.34 -1.32 4.68 -2 4 C-0.68 3.67 0.64 3.34 2 3 C1.34 2.01 0.68 1.02 0 0 Z " fill="#DC5435" transform="translate(163,259)"/>
<path d="M0 0 C6.58571019 0.88653791 6.58571019 0.88653791 8.88183594 1.51538086 C11.48850292 2.11176559 13.96850539 2.21691243 16.640625 2.31640625 C17.71054688 2.35830078 18.78046875 2.40019531 19.8828125 2.44335938 C20.99398437 2.48267578 22.10515625 2.52199219 23.25 2.5625 C24.93996094 2.62727539 24.93996094 2.62727539 26.6640625 2.69335938 C29.44258954 2.79932015 32.22120391 2.90139142 35 3 C35.495 5.475 35.495 5.475 36 8 C35.34 7.01 34.68 6.02 34 5 C31.70901794 4.60028708 31.70901794 4.60028708 29.0625 4.7421875 C28.08539063 4.75636719 27.10828125 4.77054688 26.1015625 4.78515625 C25.07804687 4.81480469 24.05453125 4.84445313 23 4.875 C20.97925228 4.91826538 18.95841365 4.95752803 16.9375 4.9921875 C15.58978516 5.02868408 15.58978516 5.02868408 14.21484375 5.06591797 C12 5 12 5 10 4 C7.7927077 3.92907158 5.58332548 3.91584975 3.375 3.9375 C1.59222656 3.95103516 1.59222656 3.95103516 -0.2265625 3.96484375 C-1.59941406 3.98224609 -1.59941406 3.98224609 -3 4 C-3 3.34 -3 2.68 -3 2 C-2.01 2 -1.02 2 0 2 C0 1.34 0 0.68 0 0 Z " fill="#4362EE" transform="translate(83,148)"/>
<path d="M0 0 C2.64465038 3.1254959 3.84414715 6.08788267 5 10 C5.66 9.01 6.32 8.02 7 7 C8.98 11.62 10.96 16.24 13 21 C11.68 21.99 10.36 22.98 9 24 C7.49115787 20.56631406 5.99446599 17.12746451 4.5 13.6875 C4.07074219 12.71103516 3.64148438 11.73457031 3.19921875 10.72851562 C2.79316406 9.79072266 2.38710937 8.85292969 1.96875 7.88671875 C1.40317383 6.59060669 1.40317383 6.59060669 0.82617188 5.26831055 C0 3 0 3 0 0 Z " fill="#502995" transform="translate(115,90)"/>
<path d="M0 0 C0.33 0 0.66 0 1 0 C1.0501123 0.60996826 1.10022461 1.21993652 1.15185547 1.84838867 C1.38485813 4.62883426 1.62981295 7.40810346 1.875 10.1875 C1.95363281 11.14720703 2.03226563 12.10691406 2.11328125 13.09570312 C2.19707031 14.02705078 2.28085937 14.95839844 2.3671875 15.91796875 C2.44050293 16.77156982 2.51381836 17.6251709 2.58935547 18.50463867 C3.03661934 21.22252456 3.95420812 23.45966803 5 26 C5.165 27.19625 5.33 28.3925 5.5 29.625 C5.77264043 33.12130077 5.77264043 33.12130077 8 36 C8.125 38.6875 8.125 38.6875 8 41 C7.34 41 6.68 41 6 41 C5.18372554 38.60539412 4.37188355 36.20943474 3.5625 33.8125 C3.33240234 33.13896484 3.10230469 32.46542969 2.86523438 31.77148438 C1.05270215 26.38642487 -0.13253655 21.60345781 -0.09765625 15.91796875 C-0.09443359 14.98662109 -0.09121094 14.05527344 -0.08789062 13.09570312 C-0.07951172 12.13599609 -0.07113281 11.17628906 -0.0625 10.1875 C-0.05798828 9.20845703 -0.05347656 8.22941406 -0.04882812 7.22070312 C-0.03708684 4.81373889 -0.02066419 2.40690143 0 0 Z " fill="#6746AC" transform="translate(44,80)"/>
<path d="M0 0 C3.20135908 3.20135908 3.156012 6.21232398 3.31640625 10.54296875 C3.35830078 11.61611328 3.40019531 12.68925781 3.44335938 13.79492188 C3.48267578 14.91447266 3.52199219 16.03402344 3.5625 17.1875 C3.60568359 18.31865234 3.64886719 19.44980469 3.69335938 20.61523438 C3.79949099 23.41003354 3.90154385 26.20492162 4 29 C3.01 28.34 2.02 27.68 1 27 C0.85377126 23.4455168 0.98314558 20.01749663 1.20507812 16.47265625 C1.40229733 10.96013899 0.49616758 8.29665996 -3 4 C-2.34 4 -1.68 4 -1 4 C-0.67 2.68 -0.34 1.36 0 0 Z " fill="#702EAD" transform="translate(115,121)"/>
<path d="M0 0 C0.33 0 0.66 0 1 0 C1.20496094 1.12019531 1.40992188 2.24039062 1.62109375 3.39453125 C1.89311689 4.86720824 2.16525849 6.33986336 2.4375 7.8125 C2.57220703 8.55048828 2.70691406 9.28847656 2.84570312 10.04882812 C3.41419737 13.11315076 4.01309651 16.03928953 5 19 C3.35 19 1.7 19 0 19 C-1.36904982 13.60936634 -2.44850139 8.60626744 -2 3 C-1.34 2.01 -0.68 1.02 0 0 Z " fill="#EF502D" transform="translate(184,259)"/>
<path d="M0 0 C0 2.64 0 5.28 0 8 C-2.64 8 -5.28 8 -8 8 C-9.125 3.25 -9.125 3.25 -8 1 C-5.07175348 0.02391783 -3.04386724 -0.08226668 0 0 Z " fill="#F68893" transform="translate(228,122)"/>
<path d="M0 0 C3.3734229 1.44575267 5.61595146 3.2049086 8 6 C8.75 8.25 8.75 8.25 9 10 C10.65 9.34 12.3 8.68 14 8 C14.66 8.66 15.32 9.32 16 10 C15.05125 10.2475 14.1025 10.495 13.125 10.75 C9.91306809 11.6857077 9.91306809 11.6857077 8.625 14.125 C8.41875 14.74375 8.2125 15.3625 8 16 C7.67 15.67 7.34 15.34 7 15 C5.35 16.65 3.7 18.3 2 20 C2.33 18.68 2.66 17.36 3 16 C3.66 16 4.32 16 5 16 C4.98839844 15.37351563 4.97679688 14.74703125 4.96484375 14.1015625 C4.95582031 13.28429687 4.94679688 12.46703125 4.9375 11.625 C4.92589844 10.81289062 4.91429688 10.00078125 4.90234375 9.1640625 C5 7 5 7 6 5 C3.03 4.505 3.03 4.505 0 4 C0 2.68 0 1.36 0 0 Z " fill="#C05442" transform="translate(118,219)"/>
<path d="M0 0 C0.33 0 0.66 0 1 0 C1.77867142 13.21578441 -0.76315578 25.33328674 -9 36 C-11.1875 37.7734375 -11.1875 37.7734375 -13 39 C-11.87548273 36.0280615 -10.77706209 33.66559313 -9 31 C-8.34 31 -7.68 31 -7 31 C-6.7834375 29.576875 -6.7834375 29.576875 -6.5625 28.125 C-6 25 -6 25 -5 23 C-4.34 23 -3.68 23 -3 23 C-1.44876534 15.34925042 -0.51648735 7.78808563 0 0 Z " fill="#DBB17C" transform="translate(221,72)"/>
<path d="M0 0 C8.6309795 5.96583144 8.6309795 5.96583144 11 11 C8.21571665 11.77341204 6.52724898 12.17574966 3.75 11.25 C2 10 2 10 1 7 C0.34 7 -0.32 7 -1 7 C-0.67 4.69 -0.34 2.38 0 0 Z " fill="#73339E" transform="translate(142,42)"/>
<path d="M0 0 C2.875 -0.125 2.875 -0.125 6 0 C6.66 0.66 7.32 1.32 8 2 C8.66 2.33 9.32 2.66 10 3 C9.814375 3.61875 9.62875 4.2375 9.4375 4.875 C8.76313824 7.04160178 8.76313824 7.04160178 10 9 C9.01 8.67 8.02 8.34 7 8 C5.68 12.62 4.36 17.24 3 22 C2.67 22 2.34 22 2 22 C1.84360875 16.93683317 2.37233929 12.49601562 3.5 7.5625 C3.7784375 6.32628906 4.056875 5.09007812 4.34375 3.81640625 C4.5603125 2.88699219 4.776875 1.95757812 5 1 C1.45481116 2.39759905 1.45481116 2.39759905 -2 4 C-1.34 2.68 -0.68 1.36 0 0 Z " fill="#C24F3F" transform="translate(80,214)"/>
<path d="M0 0 C0.33 0.99 0.66 1.98 1 3 C1.66 3 2.32 3 3 3 C4.25344168 6.88065543 4.18377543 10.77878874 4.1875 14.8125 C4.19974609 15.49892578 4.21199219 16.18535156 4.22460938 16.89257812 C4.2380431 21.62572725 3.48667949 25.50470432 2 30 C0.9375 28.1875 0.9375 28.1875 0 26 C0.495 24.515 0.495 24.515 1 23 C1.09565314 20.70995138 1.12984575 18.4170403 1.125 16.125 C1.12757813 14.91070312 1.13015625 13.69640625 1.1328125 12.4453125 C1.01832688 9.47542088 0.6173737 6.89087683 0 4 C0 2.68 0 1.36 0 0 Z " fill="#D97986" transform="translate(203,124)"/>
<path d="M0 0 C3.96204638 0.9056106 5.64657618 2.52648414 7.8125 5.8125 C9.20324685 8.24961828 10.01203217 10.05414478 10.625 12.8125 C10 15 10 15 7.5 16.8125 C6.675 17.204375 5.85 17.59625 5 18 C5.33 16.68 5.66 15.36 6 14 C6.66 14 7.32 14 8 14 C7.67 11.69 7.34 9.38 7 7 C6.34 8.32 5.68 9.64 5 11 C4.34 11 3.68 11 3 11 C3 11.66 3 12.32 3 13 C2.01 13.33 1.02 13.66 0 14 C0 12.02 0 10.04 0 8 C1.32 8.33 2.64 8.66 4 9 C4.33498301 6.66834966 4.33498301 6.66834966 4 4 C2.10415891 1.68622853 2.10415891 1.68622853 0 0 Z " fill="#CB5038" transform="translate(170,231)"/>
<path d="M0 0 C1.65 0 3.3 0 5 0 C5 0.99 5 1.98 5 3 C4.34 3 3.68 3 3 3 C2.9175 3.61875 2.835 4.2375 2.75 4.875 C2 7 2 7 0.25 8.3125 C-2.51320029 9.1568112 -4.24805136 8.76443018 -7 8 C-6.67 6.02 -6.34 4.04 -6 2 C-4.68 2.66 -3.36 3.32 -2 4 C-1.34 2.68 -0.68 1.36 0 0 Z " fill="#E74E2C" transform="translate(118,232)"/>
<path d="M0 0 C0.87840996 3.09720845 0.99435406 4.90645403 0 8 C0.66 8.33 1.32 8.66 2 9 C1.34 9 0.68 9 0 9 C0.020625 9.886875 0.04125 10.77375 0.0625 11.6875 C0 15 0 15 -0.5625 17.6875 C-1.22201498 20.1457356 -1.22201498 20.1457356 0 23 C-1.32 23 -2.64 23 -4 23 C-4.33 24.98 -4.66 26.96 -5 29 C-5.66 28.67 -6.32 28.34 -7 28 C-6.74605469 27.06800781 -6.49210937 26.13601562 -6.23046875 25.17578125 C-3.96932605 16.81991131 -1.88115771 8.4509585 0 0 Z " fill="#CB5236" transform="translate(77,219)"/>
<path d="M0 0 C0.99 0.495 0.99 0.495 2 1 C2.73075648 3.3140622 3.40138258 5.64828869 4 8 C4.66 8 5.32 8 6 8 C6.515625 9.175625 7.03125 10.35125 7.5625 11.5625 C9.88436871 16.26491281 13.13237825 19.52348606 17 23 C14 23 14 23 11.9140625 21.3125 C0.32154341 9.60128617 0.32154341 9.60128617 -0.3125 2.5 C-0.209375 1.675 -0.10625 0.85 0 0 Z " fill="#A365A5" transform="translate(119,150)"/>
<path d="M0 0 C2.25331089 3.37996633 2.22242157 4.99235394 1.60546875 8.93359375 C0.32407742 13.30685837 -2.45783061 16.04135416 -6.3125 18.4375 C-10.18803136 19.24865773 -13.10517165 18.76619574 -17 18 C-17.66 17.34 -18.32 16.68 -19 16 C-17.87851563 16.01740234 -17.87851563 16.01740234 -16.734375 16.03515625 C-15.74953125 16.04417969 -14.7646875 16.05320312 -13.75 16.0625 C-12.77546875 16.07410156 -11.8009375 16.08570312 -10.796875 16.09765625 C-8.34241322 16.01195577 -6.33831086 15.70706066 -4 15 C-4 14.01 -4 13.02 -4 12 C-3.01 11.34 -2.02 10.68 -1 10 C-0.41810734 7.57478506 -0.41810734 7.57478506 -0.3125 4.875 C-0.24675781 3.96492188 -0.18101562 3.05484375 -0.11328125 2.1171875 C-0.07589844 1.41851562 -0.03851563 0.71984375 0 0 Z " fill="#5572BE" transform="translate(259,97)"/>
<path d="M0 0 C0.33 0.99 0.66 1.98 1 3 C1.99 3.33 2.98 3.66 4 4 C3.01 4.495 3.01 4.495 2 5 C2.33 5.99 2.66 6.98 3 8 C3.66 8.33 4.32 8.66 5 9 C5.37890625 11.109375 5.37890625 11.109375 5.5625 13.75 C5.84236564 17.23832531 6.20289686 20.5838437 7 24 C6.34 24 5.68 24 5 24 C4.74605469 23.07058594 4.49210937 22.14117187 4.23046875 21.18359375 C2.13430082 13.33696325 2.13430082 13.33696325 -0.875 5.8125 C-1.24625 4.884375 -1.6175 3.95625 -2 3 C-1.34 2.01 -0.68 1.02 0 0 Z " fill="#5E2FC8" transform="translate(108,60)"/>
<path d="M0 0 C0.33 0.66 0.66 1.32 1 2 C1.66 2 2.32 2 3 2 C3 2.66 3 3.32 3 4 C5.64 4.33 8.28 4.66 11 5 C11 5.66 11 6.32 11 7 C9.02 7 7.04 7 5 7 C5.33 7.66 5.66 8.32 6 9 C6.04022391 11.3329866 6.04320247 13.66706666 6 16 C3.23539154 14.61769577 3.00879139 13.08867771 1.875 10.25 C1.52179688 9.38890625 1.16859375 8.5278125 0.8046875 7.640625 C-0.01786806 4.94136502 -0.15123996 2.80298055 0 0 Z " fill="#532EB4" transform="translate(115,85)"/>
<path d="M0 0 C0.763125 0.0825 1.52625 0.165 2.3125 0.25 C2.9725 2.23 3.6325 4.21 4.3125 6.25 C1.3125 5.25 1.3125 5.25 -0.6875 3.25 C-1.6775 3.25 -2.6675 3.25 -3.6875 3.25 C-3.6875 5.23 -3.6875 7.21 -3.6875 9.25 C-3.0275 9.58 -2.3675 9.91 -1.6875 10.25 C-1.2734375 12.97265625 -1.2734375 12.97265625 -1.0625 16.3125 C-0.98773438 17.41722656 -0.91296875 18.52195313 -0.8359375 19.66015625 C-0.78695312 20.51480469 -0.73796875 21.36945313 -0.6875 22.25 C-4.18385645 17.00546532 -6.57522085 10.6119994 -5.6875 4.25 C-4.11925384 1.11350768 -3.54118585 0.32941264 0 0 Z " fill="#C25742" transform="translate(58.6875,223.75)"/>
<path d="M0 0 C0.33 0 0.66 0 1 0 C1.33 3.3 1.66 6.6 2 10 C4.97 10.495 4.97 10.495 8 11 C8 14.3 8 17.6 8 21 C8.99 21 9.98 21 11 21 C11 21.66 11 22.32 11 23 C9.35 22.67 7.7 22.34 6 22 C5.67 18.7 5.34 15.4 5 12 C4.01 12 3.02 12 2 12 C1.71125 12.639375 1.4225 13.27875 1.125 13.9375 C0 16 0 16 -2 17 C-1.505 15.515 -1.505 15.515 -1 14 C-0.95565768 11.97965322 -0.96072026 9.95795155 -1 7.9375 C-1.11085181 2.22170362 -1.11085181 2.22170362 0 0 Z " fill="#BC6462" transform="translate(165,84)"/>
<path d="M0 0 C2.33944736 0.28730055 4.6739143 0.61936779 7 1 C7 1.66 7 2.32 7 3 C8.0725 2.649375 9.145 2.29875 10.25 1.9375 C13.78720743 1.05319814 14.74811124 0.97119449 18 2 C16.06441401 2.67220351 14.12645628 3.33758077 12.1875 4 C11.10855469 4.37125 10.02960938 4.7425 8.91796875 5.125 C6 6 6 6 3 6 C3.66 9.3 4.32 12.6 5 16 C4.34 15.67 3.68 15.34 3 15 C2.62109375 12.8203125 2.62109375 12.8203125 2.4375 10.125 C2.22371654 7.13203161 1.95571043 4.8671313 1 2 C0.34 1.67 -0.32 1.34 -1 1 C-0.67 0.67 -0.34 0.34 0 0 Z " fill="#4A279F" transform="translate(110,64)"/>
<path d="M0 0 C3.36275219 0.2882359 5.07297707 1.05076665 7.875 3 C10.52039863 6.73468041 10.28538115 8.53458305 9.6875 12.9140625 C8.88978996 15.33438728 7.99366019 16.43497675 6 18 C5.34 18 4.68 18 4 18 C4 17.34 4 16.68 4 16 C4.66 16 5.32 16 6 16 C6.05437607 14.41705218 6.09296271 12.83355744 6.125 11.25 C6.14820313 10.36828125 6.17140625 9.4865625 6.1953125 8.578125 C5.98833448 5.84601513 5.47336314 4.29189821 4 2 C1.9664052 0.73195434 1.9664052 0.73195434 0 0 Z " fill="#CB5945" transform="translate(198,233)"/>
<path d="M0 0 C0.33 0.66 0.66 1.32 1 2 C2.65 1.34 4.3 0.68 6 0 C6.33 4.95 6.66 9.9 7 15 C4.24092193 13.62046097 3.74555934 11.9246112 2.375 9.1875 C1.92898437 8.31480469 1.48296875 7.44210938 1.0234375 6.54296875 C0 4 0 4 0 0 Z " fill="#CE5073" transform="translate(125,113)"/>
<path d="M0 0 C4.51720311 -0.36625971 4.51720311 -0.36625971 6.8125 1.375 C8 3 8 3 8 5 C6.68 5 5.36 5 4 5 C3.67 6.32 3.34 7.64 3 9 C0.525 8.01 0.525 8.01 -2 7 C-1.34 4.69 -0.68 2.38 0 0 Z " fill="#F24E29" transform="translate(186,232)"/>
<path d="M0 0 C0.66 0.33 1.32 0.66 2 1 C-0.68753774 5.03130662 -3.86192684 5.42033358 -8.3125 6.625 C-9.07240234 6.8415625 -9.83230469 7.058125 -10.61523438 7.28125 C-16.42993017 8.91805403 -21.73230576 10.13575535 -27.8125 10.0625 C-29.27623047 10.04896484 -29.27623047 10.04896484 -30.76953125 10.03515625 C-31.87361328 10.01775391 -31.87361328 10.01775391 -33 10 C-33 9.67 -33 9.34 -33 9 C-31.77925781 8.84144531 -30.55851563 8.68289062 -29.30078125 8.51953125 C-13.57874278 6.96193514 -13.57874278 6.96193514 0 0 Z " fill="#B14E6A" transform="translate(161,101)"/>
<path d="M0 0 C0 6.6 0 13.2 0 20 C-0.33 20 -0.66 20 -1 20 C-1 14.06 -1 8.12 -1 2 C-1.66 2 -2.32 2 -3 2 C-3 5.3 -3 8.6 -3 12 C-4.32 10.68 -5.64 9.36 -7 8 C-6.40138258 5.64828869 -5.73075648 3.3140622 -5 1 C-3 0 -3 0 0 0 Z " fill="#BB8960" transform="translate(176,83)"/>
<path d="M0 0 C4.95 0.99 4.95 0.99 10 2 C9.50769231 8.4 9.50769231 8.4 6.9375 11.4375 C5.9784375 12.2109375 5.9784375 12.2109375 5 13 C3.9673198 10.21176345 3.95490707 9.1322726 4.9375 6.25 C5.288125 5.5075 5.63875 4.765 6 4 C5.195625 3.71125 4.39125 3.4225 3.5625 3.125 C1 2 1 2 0 0 Z " fill="#DC5738" transform="translate(109,224)"/>
<path d="M0 0 C2.9375 0.75 2.9375 0.75 4.9375 2.75 C5.203125 4.84375 5.203125 4.84375 5.1875 7.25 C5.19265625 8.0440625 5.1978125 8.838125 5.203125 9.65625 C4.9375 11.75 4.9375 11.75 2.9375 13.75 C-0.0107975 14.68104132 -1.47718152 14.98729128 -4.375 13.8125 C-4.931875 13.461875 -5.48875 13.11125 -6.0625 12.75 C-3.4225 12.75 -0.7825 12.75 1.9375 12.75 C1.9684375 10.8628125 1.9684375 10.8628125 2 8.9375 C2.01160156 8.22980469 2.02320313 7.52210938 2.03515625 6.79296875 C2.02013217 4.54694539 2.02013217 4.54694539 0.9375 1.75 C-1.3725 1.75 -3.6825 1.75 -6.0625 1.75 C-3.0625 -0.25 -3.0625 -0.25 0 0 Z " fill="#D6B589" transform="translate(54.0625,167.25)"/>
<path d="M0 0 C0.66 0.33 1.32 0.66 2 1 C1.67 3.31 1.34 5.62 1 8 C2.32 8.99 3.64 9.98 5 11 C1.37 10.67 -2.26 10.34 -6 10 C-2.5 1.25 -2.5 1.25 0 0 Z " fill="#6D32A3" transform="translate(132,55)"/>
<path d="M0 0 C0.33 1.32 0.66 2.64 1 4 C-0.98 5.65 -2.96 7.3 -5 9 C-4.34 7.02 -3.68 5.04 -3 3 C-5.41645782 2.83312552 -5.41645782 2.83312552 -8 3 C-8.66 3.66 -9.32 4.32 -10 5 C-10.99 4.67 -11.98 4.34 -13 4 C-8.46559267 -0.53440733 -6.55783615 -1.7050374 0 0 Z " fill="#C65940" transform="translate(151,230)"/>
<path d="M0 0 C1.98 0.495 1.98 0.495 4 1 C4.33 3.97 4.66 6.94 5 10 C4.01 10 3.02 10 2 10 C1.67 10.99 1.34 11.98 1 13 C0.34 13 -0.32 13 -1 13 C-0.7525 11.824375 -0.7525 11.824375 -0.5 10.625 C0.0623707 8.11791961 0.0623707 8.11791961 0 6 C0 4 0 2 0 0 Z " fill="#F3502A" transform="translate(183,246)"/>
<path d="M0 0 C2.15854239 2.15854239 3.45499913 4.38021592 5 7 C6.04579619 8.26221698 6.04579619 8.26221698 8.375 8.1875 C11.23444863 8.20048548 11.23444863 8.20048548 14 6 C14.33 6.99 14.66 7.98 15 9 C16.32 8.67 17.64 8.34 19 8 C17.38319357 9.92990228 16.43860701 10.89974697 13.94921875 11.46875 C9.85415446 11.5253312 6.85174176 11.39083522 3.5 8.875 C0.78449875 5.75217356 0.18962964 4.07703716 0 0 Z " fill="#DB8690" transform="translate(132,10)"/>
<path d="M0 0 C2.64 0.66 5.28 1.32 8 2 C8 3.32 8 4.64 8 6 C8.99 6 9.98 6 11 6 C10.67 6.99 10.34 7.98 10 9 C7.36 8.34 4.72 7.68 2 7 C1.34 4.69 0.68 2.38 0 0 Z " fill="#F14D29" transform="translate(109,218)"/>
<path d="M0 0 C0.78375 0.268125 1.5675 0.53625 2.375 0.8125 C6.17266214 2.05656174 9.99284468 3.19487731 13.828125 4.31640625 C16 5 16 5 18 6 C18 6.66 18 7.32 18 8 C18.99 8.33 19.98 8.66 21 9 C13.45035883 8.70962919 7.43711384 5.88286707 1 2 C0.67 1.34 0.34 0.68 0 0 Z " fill="#BB608E" transform="translate(136,174)"/>
<path d="M0 0 C4.29 0.99 8.58 1.98 13 3 C12.01 3.33 11.02 3.66 10 4 C10 4.66 10 5.32 10 6 C10.73605469 5.855625 11.47210938 5.71125 12.23046875 5.5625 C13.20628906 5.376875 14.18210938 5.19125 15.1875 5 C16.15042969 4.814375 17.11335938 4.62875 18.10546875 4.4375 C20.7934206 4.03122388 23.28771019 3.92066428 26 4 C21.63305225 6.33943629 17.95109667 7.14976298 13 7.1875 C12.154375 7.20167969 11.30875 7.21585937 10.4375 7.23046875 C7.84591384 6.98543096 6.22975008 6.30584901 4 5 C5.32 5 6.64 5 8 5 C8 4.34 8 3.68 8 3 C5.36 2.67 2.72 2.34 0 2 C0 1.34 0 0.68 0 0 Z " fill="#552F86" transform="translate(118,87)"/>
<path d="M0 0 C4.92008879 4.76137625 4.92008879 4.76137625 5.25 9.875 C5.22382048 13.47468355 4.6189021 15.3810979 2 18 C0.875 10.375 0.875 10.375 2 7 C1.67 6.01 1.34 5.02 1 4 C0.34 3.67 -0.32 3.34 -1 3 C-0.67 2.01 -0.34 1.02 0 0 Z " fill="#E38E97" transform="translate(150,0)"/>
<path d="M0 0 C0.99 0.495 0.99 0.495 2 1 C2.33 1.99 2.66 2.98 3 4 C6.37462715 3.45276317 8.08235 2.9451 11 1 C9.73058503 4.91402949 8.48832306 6.79072873 5 9 C1.125 7.125 1.125 7.125 0 6 C-0.04080783 4.00041636 -0.04254356 1.99954746 0 0 Z " fill="#D74930" transform="translate(188,244)"/>
<path d="M0 0 C0.94875 0.04125 1.8975 0.0825 2.875 0.125 C3.865 2.435 4.855 4.745 5.875 7.125 C4.885 7.125 3.895 7.125 2.875 7.125 C2.215 6.135 1.555 5.145 0.875 4.125 C0.215 3.795 -0.445 3.465 -1.125 3.125 C-1.125 4.115 -1.125 5.105 -1.125 6.125 C-2.445 6.455 -3.765 6.785 -5.125 7.125 C-5.25 4.75 -5.25 4.75 -5.125 2.125 C-3.125 0.125 -3.125 0.125 0 0 Z " fill="#D65032" transform="translate(132.125,228.875)"/>
<path d="M0 0 C-0.33 0.66 -0.66 1.32 -1 2 C-6.19432248 3.58470855 -11.57858775 4.28533749 -17 4 C-17 3.34 -17 2.68 -17 2 C-5.47835991 -1.62870159 -5.47835991 -1.62870159 0 0 Z " fill="#6E3999" transform="translate(145,89)"/>
<path d="M0 0 C-0.33 0.99 -0.66 1.98 -1 3 C-2.92578125 3.73046875 -2.92578125 3.73046875 -5.3125 4.1875 C-6.09238281 4.34605469 -6.87226563 4.50460938 -7.67578125 4.66796875 C-10 5 -10 5 -14 5 C-14.33 4.01 -14.66 3.02 -15 2 C-9.92523206 0.73694665 -5.27203646 -0.27036084 0 0 Z " fill="#6D398F" transform="translate(166,83)"/>
<path d="M0 0 C1.99097846 2.98646769 2.94124926 5.59687262 4 9 C1.625 8.75 1.625 8.75 -1 8 C-2.3125 5.9375 -2.3125 5.9375 -3 4 C-5.64 4.66 -8.28 5.32 -11 6 C-11 5.34 -11 4.68 -11 4 C-7.67377987 2.57447709 -4.54423143 1.68915611 -1 1 C-0.67 0.67 -0.34 0.34 0 0 Z " fill="#492493" transform="translate(95,74)"/>
<path d="M0 0 C0.66 0 1.32 0 2 0 C3.0625 2.375 3.0625 2.375 4 5 C3.67 5.66 3.34 6.32 3 7 C2.34 7 1.68 7 1 7 C0.67 8.32 0.34 9.64 0 11 C-2.13093906 9.93453047 -3.36587557 8.70840281 -5 7 C-4.01 6.67 -3.02 6.34 -2 6 C-2 5.34 -2 4.68 -2 4 C-1.34 4 -0.68 4 0 4 C0 2.68 0 1.36 0 0 Z " fill="#EA522D" transform="translate(175,238)"/>
<path d="M0 0 C2.79830457 1.03067325 4.5415505 2.19379221 7 4 C7.9375 6.25 7.9375 6.25 8 8 C5.96166576 6.7260411 3.96147874 5.38938077 2 4 C2 3.34 2 2.68 2 2 C-0.97 1.67 -3.94 1.34 -7 1 C-7 1.66 -7 2.32 -7 3 C-8.98 3.33 -10.96 3.66 -13 4 C-9.06215397 -0.11683903 -5.65111798 -0.74196333 0 0 Z " fill="#5473C0" transform="translate(251,89)"/>
<path d="M0 0 C0 3.60648031 -0.89987686 4.65229471 -2.9375 7.5625 C-5.1283185 10.68680228 -5.1283185 10.68680228 -7 14 C-7.66 14 -8.32 14 -9 14 C-9 15.65 -9 17.3 -9 19 C-9.66 18.67 -10.32 18.34 -11 18 C-10.61686024 12.57082802 -8.46164368 9.55148745 -4.9375 5.625 C-4.46505859 5.07972656 -3.99261719 4.53445312 -3.50585938 3.97265625 C-2.34782921 2.63916697 -1.17533989 1.31825781 0 0 Z " fill="#7034BC" transform="translate(139,42)"/>
<path d="M0 0 C0.625 1.75 0.625 1.75 1 4 C0.67 4.598125 0.34 5.19625 0 5.8125 C-1.51649859 9.12984067 -0.79714995 11.50480407 0 15 C1.4421908 17.85248773 1.4421908 17.85248773 3 20 C0.60302006 19.04120802 -0.73603315 18.42697796 -2.11328125 16.19921875 C-3.59886373 12.51471241 -3.47969294 8.90706424 -3 5 C-1.5 1.9375 -1.5 1.9375 0 0 Z " fill="#5175BC" transform="translate(237,93)"/>
<path d="M0 0 C1 2 1 2 0.4765625 4.06640625 C0.05503906 5.30197266 0.05503906 5.30197266 -0.375 6.5625 C-1.92196165 11.41529752 -2.59114896 15.93024712 -3 21 C-4.73774893 17.76490219 -5.28471742 15.70132651 -5 12 C-4.67 11.01 -4.34 10.02 -4 9 C-3.64763503 7.00326516 -3.31165441 5.00349261 -3 3 C-2.34 3 -1.68 3 -1 3 C-0.67 2.01 -0.34 1.02 0 0 Z " fill="#7843D4" transform="translate(54,84)"/>
<path d="M0 0 C7.59762024 -0.38999191 13.84466021 0.39241413 21 3 C20.67 3.66 20.34 4.32 20 5 C18.35333797 4.8864371 16.70763918 4.75882619 15.0625 4.625 C13.68771484 4.52058594 13.68771484 4.52058594 12.28515625 4.4140625 C11.15400391 4.20910156 11.15400391 4.20910156 10 4 C9.67 3.34 9.34 2.68 9 2 C6.87423218 1.53348793 6.87423218 1.53348793 4.4375 1.375 C3.61121094 1.30023437 2.78492187 1.22546875 1.93359375 1.1484375 C1.29550781 1.09945313 0.65742187 1.05046875 0 1 C0 0.67 0 0.34 0 0 Z " fill="#5E3AA9" transform="translate(107,30)"/>
<path d="M0 0 C0 0.66 0 1.32 0 2 C-1.98 2 -3.96 2 -6 2 C-7.64800856 5.66447432 -8.33580973 8.81203466 -8.625 12.8125 C-8.69976562 13.78832031 -8.77453125 14.76414063 -8.8515625 15.76953125 C-8.90054688 16.50558594 -8.94953125 17.24164063 -9 18 C-9.33 18 -9.66 18 -10 18 C-10.38167939 4.8956743 -10.38167939 4.8956743 -8 0 C-5.13822943 -1.43088528 -3.06624227 -0.59991697 0 0 Z " fill="#BE5A49" transform="translate(192,227)"/>
<path d="M0 0 C2.97 0.495 2.97 0.495 6 1 C6 1.66 6 2.32 6 3 C6.97839844 3.29003906 6.97839844 3.29003906 7.9765625 3.5859375 C12.6771398 4.98640448 17.35840891 6.41208726 22 8 C18.00928005 9.60019088 15.42095611 8.30230373 11.5625 6.75 C10.45003906 6.31171875 9.33757812 5.8734375 8.19140625 5.421875 C5.28917044 4.12883481 2.64365838 2.75914464 0 1 C0 0.67 0 0.34 0 0 Z " fill="#3F63B9" transform="translate(88,176)"/>
<path d="M0 0 C5.75 3.625 5.75 3.625 8 7 C8.99 7.33 9.98 7.66 11 8 C11.6875 10.0625 11.6875 10.0625 12 12 C11.01 12 10.02 12 9 12 C9 11.34 9 10.68 9 10 C7.68 10 6.36 10 5 10 C5 8.35 5 6.7 5 5 C4.360625 4.731875 3.72125 4.46375 3.0625 4.1875 C1 3 1 3 0 0 Z " fill="#E76F58" transform="translate(189,104)"/>
<path d="M0 0 C2.475 0.495 2.475 0.495 5 1 C6.3125 3.0625 6.3125 3.0625 7 5 C6.01 5.495 6.01 5.495 5 6 C5 5.34 5 4.68 5 4 C4.34 4 3.68 4 3 4 C2.67 6.64 2.34 9.28 2 12 C1.34 11.67 0.68 11.34 0 11 C0 7.37 0 3.74 0 0 Z " fill="#512CA8" transform="translate(95,86)"/>
<path d="M0 0 C0.99 0 1.98 0 3 0 C3 1.32 3 2.64 3 4 C3.99 4.33 4.98 4.66 6 5 C5.34 5 4.68 5 4 5 C3.34 8.63 2.68 12.26 2 16 C1.67 16 1.34 16 1 16 C0.67 10.72 0.34 5.44 0 0 Z " fill="#E35231" transform="translate(129,238)"/>
<path d="M0 0 C2.45369798 3.68054697 3.44052033 7.3872336 4.70703125 11.6015625 C5.78587104 14.26855719 5.78587104 14.26855719 8.63671875 14.8359375 C9.41660156 14.89007813 10.19648438 14.94421875 11 15 C10.67 15.99 10.34 16.98 10 18 C6.66098159 17.07249489 5.0911505 16.10127833 2.75 13.5 C0.50172102 9.00344204 0.19641227 4.9692305 0 0 Z " fill="#A54572" transform="translate(118,129)"/>
<path d="M0 0 C3.8879673 0.50989735 6.97557043 0.20474217 10.8125 -0.5 C7.64683427 1.61044382 5.30052585 2.25552077 1.625 3.125 C0.53832031 3.38539063 -0.54835937 3.64578125 -1.66796875 3.9140625 C-2.49941406 4.10742188 -3.33085937 4.30078125 -4.1875 4.5 C-4.5175 3.18 -4.8475 1.86 -5.1875 0.5 C-3.1875 -0.5 -3.1875 -0.5 0 0 Z " fill="#D7533E" transform="translate(192.1875,251.5)"/>
<path d="M0 0 C0.99 0 1.98 0 3 0 C3 0.66 3 1.32 3 2 C3.78375 2.226875 4.5675 2.45375 5.375 2.6875 C8 4 8 4 9.3125 6.4375 C10 9 10 9 10 12 C8.70212134 10.75645114 7.41193241 9.5048736 6.125 8.25 C5.40570313 7.55390625 4.68640625 6.8578125 3.9453125 6.140625 C2.13520321 4.14877783 1.05151914 2.4572342 0 0 Z " fill="#3F67BC" transform="translate(65,156)"/>
<path d="M0 0 C0.99 0.33 1.98 0.66 3 1 C3.74913597 2.72626985 4.49295762 4.45586386 5.171875 6.2109375 C6.30905052 8.66766575 7.96836171 10.24858768 10 12 C9.67 12.66 9.34 13.32 9 14 C5.07503959 10.17426612 1.31820209 6.38002676 -2 2 C-1.34 2 -0.68 2 0 2 C0 1.34 0 0.68 0 0 Z " fill="#483AD5" transform="translate(52,119)"/>
<path d="M0 0 C2.97 0.33 5.94 0.66 9 1 C9 2.32 9 3.64 9 5 C6.75 5.25 6.75 5.25 4 5 C1.6875 3.0625 1.6875 3.0625 0 1 C0 0.67 0 0.34 0 0 Z " fill="#3D6CED" transform="translate(133,34)"/>
<path d="M0 0 C1.65 0.33 3.3 0.66 5 1 C5 2.32 5 3.64 5 5 C5.66 5.33 6.32 5.66 7 6 C6.01 6 5.02 6 4 6 C3.67 6.66 3.34 7.32 3 8 C3 7.01 3 6.02 3 5 C2.34 5 1.68 5 1 5 C1 5.66 1 6.32 1 7 C0.01 6.67 -0.98 6.34 -2 6 C-1.67 5.01 -1.34 4.02 -1 3 C-0.34 3.33 0.32 3.66 1 4 C0.67 2.68 0.34 1.36 0 0 Z " fill="#F05733" transform="translate(130,231)"/>
<path d="M0 0 C1.09658936 3.28976808 0.79953138 4.71303767 0 8 C-1.32 8.33 -2.64 8.66 -4 9 C-5 6 -5 6 -4.25 3.9375 C-3 2 -3 2 0 0 Z " fill="#F05835" transform="translate(123,224)"/>
<path d="M0 0 C3.4375 1.3125 3.4375 1.3125 7 3 C7.33 3.99 7.66 4.98 8 6 C9.98248715 6.71706982 11.98415349 7.38290413 14 8 C14.66 8.66 15.32 9.32 16 10 C13.69 10 11.38 10 9 10 C9 9.01 9 8.02 9 7 C8.34 7 7.68 7 7 7 C6.67 6.34 6.34 5.68 6 5 C4.02477154 3.95191959 2.02518491 2.9479589 0 2 C0 1.34 0 0.68 0 0 Z " fill="#4560EE" transform="translate(66,138)"/>
<path d="M0 0 C0.99 0.33 1.98 0.66 3 1 C1.42065361 1.98558449 -0.16365173 2.96322541 -1.75 3.9375 C-3.07257813 4.75541016 -3.07257813 4.75541016 -4.421875 5.58984375 C-6.68399917 6.82715712 -8.48566325 7.53590513 -11 8 C-11 6.68 -11 5.36 -11 4 C-9.9275 3.896875 -8.855 3.79375 -7.75 3.6875 C-4.0319554 3.00585849 -2.84860649 2.23819082 0 0 Z " fill="#C75841" transform="translate(117,239)"/>
<path d="M0 0 C6.625 -0.25 6.625 -0.25 10 2 C10.1875 5.125 10.1875 5.125 10 8 C9.67 8 9.34 8 9 8 C9 6.35 9 4.7 9 3 C5.62563814 2.66619186 5.62563814 2.66619186 2 3 C0.01760473 4.86124923 0.01760473 4.86124923 -1 7 C-0.67 4.69 -0.34 2.38 0 0 Z " fill="#CC523D" transform="translate(190,237)"/>
<path d="M0 0 C0.33 0 0.66 0 1 0 C2.46670113 5.22512279 3.22577402 9.5814234 3 15 C2.34 15 1.68 15 1 15 C-0.44207941 12.11584117 -0.09394887 9.58278472 -0.0625 6.375 C-0.05347656 5.18648438 -0.04445312 3.99796875 -0.03515625 2.7734375 C-0.02355469 1.85820312 -0.01195312 0.94296875 0 0 Z " fill="#D5553A" transform="translate(181,263)"/>
<path d="M0 0 C-0.33 0.66 -0.66 1.32 -1 2 C-3.31 2 -5.62 2 -8 2 C-8.66 4.31 -9.32 6.62 -10 9 C-10.33 9 -10.66 9 -11 9 C-11 6.36 -11 3.72 -11 1 C-7.2297564 -1.56376565 -4.32597804 -0.83191885 0 0 Z " fill="#D0533D" transform="translate(171,237)"/>
<path d="M0 0 C2.59482129 2.59482129 2.69990302 4.39883625 3 8 C2.34 8.66 1.68 9.32 1 10 C-0.32 8.02 -1.64 6.04 -3 4 C-2.34 4 -1.68 4 -1 4 C-0.67 2.68 -0.34 1.36 0 0 Z " fill="#522BAD" transform="translate(115,121)"/>
<path d="M0 0 C-0.33 0.99 -0.66 1.98 -1 3 C-1 2.34 -1 1.68 -1 1 C-3.52259061 2.97420135 -3.9929808 3.96745642 -4.6875 7.1875 C-4.790625 8.115625 -4.89375 9.04375 -5 10 C-5.99 10.33 -6.98 10.66 -8 11 C-7.39339875 3.59946476 -7.39339875 3.59946476 -5.6875 1 C-4 0 -4 0 0 0 Z " fill="#E75335" transform="translate(85,215)"/>
<path d="M0 0 C0.66 0 1.32 0 2 0 C4.11161731 9.41002278 4.11161731 9.41002278 5 14 C4.34 14 3.68 14 3 14 C2.49307308 12.4188708 1.99473557 10.83498617 1.5 9.25 C1.2215625 8.36828125 0.943125 7.4865625 0.65625 6.578125 C0 4 0 4 0 0 Z " fill="#5733B9" transform="translate(110,70)"/>
<path d="M0 0 C1.14926266 0.95421808 2.29430541 1.91352045 3.4375 2.875 C4.07558594 3.40867188 4.71367187 3.94234375 5.37109375 4.4921875 C7 6 7 6 8 8 C7.46375 7.67 6.9275 7.34 6.375 7 C3.4608939 5.77300796 1.13132292 5.85766714 -2 6 C-2 5.01 -2 4.02 -2 3 C-1.34 2.67 -0.68 2.34 0 2 C0 1.34 0 0.68 0 0 Z " fill="#526DDD" transform="translate(124,164)"/>
<path d="M0 0 C0.66 0 1.32 0 2 0 C2 1.98 2 3.96 2 6 C4.97 6.33 7.94 6.66 11 7 C11 7.33 11 7.66 11 8 C2.42857143 8.28571429 2.42857143 8.28571429 -1 6 C-0.67 4.02 -0.34 2.04 0 0 Z " fill="#EA5C6D" transform="translate(158,118)"/>
<path d="M0 0 C1.98 0 3.96 0 6 0 C6.33 0.66 6.66 1.32 7 2 C5.02 2.66 3.04 3.32 1 4 C0.67 5.65 0.34 7.3 0 9 C-0.33 9 -0.66 9 -1 9 C-1.125 2.25 -1.125 2.25 0 0 Z " fill="#D15843" transform="translate(98,246)"/>
<path d="M0 0 C0.66 0 1.32 0 2 0 C2 3.63 2 7.26 2 11 C1.01 10.34 0.02 9.68 -1 9 C-1.4375 2.875 -1.4375 2.875 0 0 Z " fill="#E1BA8F" transform="translate(46,169)"/>
<path d="M0 0 C0.94875 0.04125 1.8975 0.0825 2.875 0.125 C2.875 2.105 2.875 4.085 2.875 6.125 C0.235 4.805 -2.405 3.485 -5.125 2.125 C-3.125 0.125 -3.125 0.125 0 0 Z " fill="#CE5E88" transform="translate(140.125,170.875)"/>
<path d="M0 0 C0.66 0.66 1.32 1.32 2 2 C1.34 3.98 0.68 5.96 0 8 C-0.66 8 -1.32 8 -2 8 C-3.4606285 5.35261084 -4 4.10551666 -4 1 C-3.01 1.33 -2.02 1.66 -1 2 C-0.67 1.34 -0.34 0.68 0 0 Z " fill="#CF5B88" transform="translate(125,150)"/>
<path d="M0 0 C0.33 0 0.66 0 1 0 C1.06058594 0.78246094 1.12117188 1.56492188 1.18359375 2.37109375 C1.26738281 3.38300781 1.35117188 4.39492187 1.4375 5.4375 C1.51871094 6.44683594 1.59992188 7.45617187 1.68359375 8.49609375 C1.73211468 10.93640779 1.73211468 10.93640779 3 12 C3.04080783 13.99958364 3.04254356 16.00045254 3 18 C1 17 1 17 0.37890625 15.359375 C-0.11285402 12.29728012 -0.0935003 9.35003047 -0.0625 6.25 C-0.05347656 5.07953125 -0.04445313 3.9090625 -0.03515625 2.703125 C-0.02355469 1.81109375 -0.01195313 0.9190625 0 0 Z " fill="#C34E99" transform="translate(118,133)"/>
<path d="M0 0 C6.15234375 0.5859375 6.15234375 0.5859375 8 1 C8.33 1.66 8.66 2.32 9 3 C8.25 5.0625 8.25 5.0625 7 7 C6.01 7.33 5.02 7.66 4 8 C4.33 6.02 4.66 4.04 5 2 C3.35 1.67 1.7 1.34 0 1 C0 0.67 0 0.34 0 0 Z " fill="#5229AF" transform="translate(85,80)"/>
<path d="M0 0 C0.33 0 0.66 0 1 0 C1.61989796 8.05867347 1.61989796 8.05867347 -0.6875 11.5625 C-3.37484955 13.23301458 -4.89156165 13.34538204 -8 13 C-5 11 -5 11 -2.875 9.875 C0.05265027 6.94734973 -0.26626122 4.06048364 0 0 Z " fill="#B35E4C" transform="translate(98,254)"/>
<path d="M0 0 C1.9375 0.3125 1.9375 0.3125 4 1 C4.33 1.99 4.66 2.98 5 4 C1.71023192 5.09658936 0.28696233 4.79953138 -3 4 C-3 3.34 -3 2.68 -3 2 C-2.01 2 -1.02 2 0 2 C0 1.34 0 0.68 0 0 Z " fill="#E44E2D" transform="translate(102,242)"/>
<path d="M0 0 C0.33 0 0.66 0 1 0 C1 1.98 1 3.96 1 6 C0.34 6 -0.32 6 -1 6 C-1.33 7.65 -1.66 9.3 -2 11 C-3.10844919 7.67465243 -2.84454356 5.37817425 -2 2 C-1.34 2 -0.68 2 0 2 C0 1.34 0 0.68 0 0 Z " fill="#E95368" transform="translate(163,106)"/>
<path d="M0 0 C1.485 0.99 1.485 0.99 3 2 C3.3984375 4.3125 3.3984375 4.3125 3.375 7 C3.38273437 7.886875 3.39046875 8.77375 3.3984375 9.6875 C3.26695312 10.450625 3.13546875 11.21375 3 12 C2.01 12.66 1.02 13.32 0 14 C0.66 11.03 1.32 8.06 2 5 C1.34 5 0.68 5 0 5 C0 3.35 0 1.7 0 0 Z " fill="#5880E8" transform="translate(256,95)"/>
<path d="M0 0 C0.66 0 1.32 0 2 0 C2.33 2.97 2.66 5.94 3 9 C0.9375 7.3125 0.9375 7.3125 -1 5 C-0.75 2.25 -0.75 2.25 0 0 Z " fill="#512DA7" transform="translate(107,83)"/>
<path d="M0 0 C1.32 0.66 2.64 1.32 4 2 C3.67 3.32 3.34 4.64 3 6 C2.34 6 1.68 6 1 6 C0.67 5.34 0.34 4.68 0 4 C-0.99 4 -1.98 4 -3 4 C-2.01 2.68 -1.02 1.36 0 0 Z " fill="#5F33C8" transform="translate(95,81)"/>
<path d="M0 0 C1.32 0.33 2.64 0.66 4 1 C4 1.66 4 2.32 4 3 C6.475 3.99 6.475 3.99 9 5 C9 5.33 9 5.66 9 6 C6.69 6 4.38 6 2 6 C2 4.68 2 3.36 2 2 C1.34 2 0.68 2 0 2 C0 1.34 0 0.68 0 0 Z " fill="#4841D4" transform="translate(130,34)"/>
<path d="M0 0 C0.66 0.33 1.32 0.66 2 1 C0.625 3.5 0.625 3.5 -1 6 C-1.66 6 -2.32 6 -3 6 C-2.67 7.32 -2.34 8.64 -2 10 C-3.32 9.01 -4.64 8.02 -6 7 C-5 4 -5 4 -3 2.9375 C-2.34 2.628125 -1.68 2.31875 -1 2 C-0.67 1.34 -0.34 0.68 0 0 Z " fill="#BB938B" transform="translate(148,35)"/>
<path d="M0 0 C0.66 0.33 1.32 0.66 2 1 C1.34 2.65 0.68 4.3 0 6 C-0.99 6 -1.98 6 -3 6 C-3 4.35 -3 2.7 -3 1 C-2.01 0.67 -1.02 0.34 0 0 Z " fill="#EF5127" transform="translate(58,226)"/>
<path d="M0 0 C1.65 0 3.3 0 5 0 C5.66 1.98 6.32 3.96 7 6 C4 5 4 5 2 3 C1.01 2.67 0.02 2.34 -1 2 C-0.67 1.34 -0.34 0.68 0 0 Z " fill="#C85E48" transform="translate(56,224)"/>
<path d="M0 0 C-0.33 1.32 -0.66 2.64 -1 4 C-2.65 4 -4.3 4 -6 4 C-6.33 3.01 -6.66 2.02 -7 1 C-4.53721199 -0.231394 -2.7204945 -0.07159196 0 0 Z " fill="#FDBC72" transform="translate(56,174)"/>
<path d="M0 0 C0.99 0 1.98 0 3 0 C3 0.99 3 1.98 3 3 C2.67 3.33 2.34 3.66 2 4 C3.32 4.33 4.64 4.66 6 5 C3.525 6.485 3.525 6.485 1 8 C0 7 0 7 -0.0625 3.4375 C-0.041875 2.303125 -0.02125 1.16875 0 0 Z " fill="#D64A76" transform="translate(137,134)"/>
<path d="M0 0 C0.66 0 1.32 0 2 0 C2 0.66 2 1.32 2 2 C3.98 2 5.96 2 8 2 C8 2.66 8 3.32 8 4 C5.36 4 2.72 4 0 4 C0 2.68 0 1.36 0 0 Z " fill="#DC7482" transform="translate(158,180)"/>
<path d="M0 0 C4.23429756 1.31061591 8.07407404 2.94356259 12 5 C9.44345185 5.95582656 8.39658231 6.17802782 5.859375 5.0390625 C5.16328125 4.57242188 4.4671875 4.10578125 3.75 3.625 C3.04359375 3.16351563 2.3371875 2.70203125 1.609375 2.2265625 C1.07828125 1.82179687 0.5471875 1.41703125 0 1 C0 0.67 0 0.34 0 0 Z " fill="#AF65A8" transform="translate(136,174)"/>
<path d="M0 0 C2 1 2 1 2.8515625 3.50390625 C3.10679688 4.51324219 3.36203125 5.52257812 3.625 6.5625 C3.88539062 7.57441406 4.14578125 8.58632812 4.4140625 9.62890625 C4.60742188 10.41136719 4.80078125 11.19382813 5 12 C1.92056849 9.94704566 1.20706879 9.34265205 0 6 C-0.125 2.75 -0.125 2.75 0 0 Z " fill="#8161BE" transform="translate(119,150)"/>
<path d="M0 0 C0.66 0.33 1.32 0.66 2 1 C2.33 1.99 2.66 2.98 3 4 C4.32 4 5.64 4 7 4 C7 4.66 7 5.32 7 6 C4.125 6.1875 4.125 6.1875 1 6 C0.34 5.01 -0.32 4.02 -1 3 C-0.67 2.01 -0.34 1.02 0 0 Z M-1 6 C-0.01 6.495 -0.01 6.495 1 7 C0.01 7.495 0.01 7.495 -1 8 C-1 7.34 -1 6.68 -1 6 Z " fill="#4F2AAB" transform="translate(100,110)"/>
<path d="M0 0 C3.93846154 3.32307692 3.93846154 3.32307692 4.25 6.75 C4.1675 7.4925 4.085 8.235 4 9 C3.01 9.495 3.01 9.495 2 10 C-0.09350689 6.5980513 -0.17942163 3.94727588 0 0 Z " fill="#6333C6" transform="translate(50,108)"/>
<path d="M0 0 C1.125 3.75 1.125 3.75 0 6 C0.66 6.33 1.32 6.66 2 7 C1.34 7 0.68 7 0 7 C-0.28875 7.639375 -0.5775 8.27875 -0.875 8.9375 C-2 11 -2 11 -4 12 C-2.66666667 8 -1.33333333 4 0 0 Z " fill="#7B49C2" transform="translate(51,63)"/>
<path d="M0 0 C3.57104439 1.87949705 5.54744301 3.17053157 7 7 C6.01 7.495 6.01 7.495 5 8 C4.34 7.34 3.68 6.68 3 6 C2.01 5.34 1.02 4.68 0 4 C0 2.68 0 1.36 0 0 Z " fill="#84438C" transform="translate(146,46)"/>
<path d="M0 0 C0.99 0 1.98 0 3 0 C3.6875 1.75 3.6875 1.75 4 4 C2.5625 6.25 2.5625 6.25 1 8 C0.67 5.36 0.34 2.72 0 0 Z " fill="#623399" transform="translate(119,115)"/>
<path d="M0 0 C0.99 0.33 1.98 0.66 3 1 C2.69106068 2.6256807 2.3777305 4.25052748 2.0625 5.875 C1.88847656 6.77992188 1.71445313 7.68484375 1.53515625 8.6171875 C1 11 1 11 0 13 C-0.33 12.67 -0.66 12.34 -1 12 C-0.90997602 9.97591245 -0.75358962 7.95455713 -0.5625 5.9375 C-0.46066406 4.83277344 -0.35882813 3.72804687 -0.25390625 2.58984375 C-0.17011719 1.73519531 -0.08632812 0.88054687 0 0 Z " fill="#C45C40" transform="translate(138,243)"/>
<path d="M0 0 C0.33 0.66 0.66 1.32 1 2 C1.66 2 2.32 2 3 2 C3.66 4.97 4.32 7.94 5 11 C2.46556509 8.46556509 1.25794501 7.19324503 0 4 C0 2.68 0 1.36 0 0 Z " fill="#A74A6A" transform="translate(125,113)"/>
<path d="M0 0 C0.99 1.32 1.98 2.64 3 4 C1.68 5.65 0.36 7.3 -1 9 C-1.625 6.1875 -1.625 6.1875 -2 3 C-1.34 2.01 -0.68 1.02 0 0 Z " fill="#EDAE5F" transform="translate(199,73)"/>
<path d="M0 0 C-0.6875 2.375 -0.6875 2.375 -2 5 C-4.625 6.3125 -4.625 6.3125 -7 7 C-3.86206897 0 -3.86206897 0 0 0 Z " fill="#6C47AA" transform="translate(66,44)"/>
<path d="M0 0 C3.2542015 2.83430453 4.5206753 4.68607774 5 9 C4.34 9 3.68 9 3 9 C2.71125 8.195625 2.4225 7.39125 2.125 6.5625 C1.26737432 3.8673532 1.26737432 3.8673532 -1 3 C-0.67 2.01 -0.34 1.02 0 0 Z " fill="#D7828D" transform="translate(150,0)"/>
<path d="M0 0 C1.670625 0.061875 1.670625 0.061875 3.375 0.125 C3.705 0.785 4.035 1.445 4.375 2.125 C0.67958414 3.07524979 -1.92958414 3.07524979 -5.625 2.125 C-3.625 0.125 -3.625 0.125 0 0 Z " fill="#E05331" transform="translate(166.625,230.875)"/>
<path d="M0 0 C0.66 0 1.32 0 2 0 C2 1.98 2 3.96 2 6 C1.01 6.33 0.02 6.66 -1 7 C-0.67 4.69 -0.34 2.38 0 0 Z " fill="#AE5281" transform="translate(122,119)"/>
<path d="M0 0 C1.32 1.32 2.64 2.64 4 4 C2.625 5.5 2.625 5.5 1 7 C0.34 7 -0.32 7 -1 7 C-0.67 4.69 -0.34 2.38 0 0 Z " fill="#813E9E" transform="translate(142,42)"/>
<path d="M0 0 C0.33 1.32 0.66 2.64 1 4 C-0.65 5.32 -2.3 6.64 -4 8 C-4.66 7.34 -5.32 6.68 -6 6 C-5.01 6 -4.02 6 -3 6 C-3 5.01 -3 4.02 -3 3 C-2.01 3 -1.02 3 0 3 C0 2.01 0 1.02 0 0 Z " fill="#E75432" transform="translate(97,258)"/>
<path d="M0 0 C0.93423645 3.01031744 1.04449911 3.86650268 0 7 C0 6.34 0 5.68 0 5 C-1.32 4.67 -2.64 4.34 -4 4 C-3.67 3.01 -3.34 2.02 -3 1 C-2.01 0.67 -1.02 0.34 0 0 Z " fill="#E04B28" transform="translate(204,239)"/>
<path d="M0 0 C0 1.32 0 2.64 0 4 C-1.98 4 -3.96 4 -6 4 C-6 3.34 -6 2.68 -6 2 C-2.25 0 -2.25 0 0 0 Z " fill="#F54D26" transform="translate(145,234)"/>
<path d="M0 0 C2.31 0.66 4.62 1.32 7 2 C6.67 2.66 6.34 3.32 6 4 C4.35 4 2.7 4 1 4 C0.67 2.68 0.34 1.36 0 0 Z " fill="#655EB8" transform="translate(146,180)"/>
<path d="M0 0 C1.32 0.33 2.64 0.66 4 1 C3.01 2.485 3.01 2.485 2 4 C-0.625 4.1875 -0.625 4.1875 -3 4 C-2.67 3.34 -2.34 2.68 -2 2 C-1.34 2 -0.68 2 0 2 C0 1.34 0 0.68 0 0 Z " fill="#3C78F0" transform="translate(107,179)"/>
<path d="M0 0 C3.57104439 1.87949705 5.54744301 3.17053157 7 7 C6.01 7.495 6.01 7.495 5 8 C4.67 7.01 4.34 6.02 4 5 C2.67151309 3.99357052 1.33849671 2.99307821 0 2 C0 1.34 0 0.68 0 0 Z " fill="#DEA773" transform="translate(203,40)"/>
</svg>
